<svg width="29" height="37" viewBox="0 0 29 37" fill="none" xmlns="http://www.w3.org/2000/svg">
<path d="M14.5 34.5416L13 34.5416C13 35.1483 13.3655 35.6953 13.926 35.9275C14.4865 36.1596 15.1317 36.0313 15.5607 35.6023L14.5 34.5416ZM16 2.45831C16 1.62989 15.3284 0.958313 14.5 0.958313C13.6716 0.958313 13 1.62989 13 2.45831L16 2.45831ZM7.02268 29.1856C7.60847 29.7714 8.55821 29.7714 9.144 29.1856C9.72979 28.5999 9.72979 27.6501 9.144 27.0643L7.02268 29.1856ZM2.72733 20.6477C2.14155 20.0619 1.1918 20.0619 0.606012 20.6477C0.0202251 21.2334 0.0202252 22.1832 0.606012 22.769L2.72733 20.6477ZM28.394 22.769C28.9798 22.1832 28.9798 21.2334 28.394 20.6477C27.8082 20.0619 26.8585 20.0619 26.2727 20.6477L28.394 22.769ZM16 34.5416L16 2.45831L13 2.45831L13 34.5416L16 34.5416ZM9.144 27.0643L2.72733 20.6477L0.606012 22.769L7.02268 29.1856L9.144 27.0643ZM26.2727 20.6477L13.4393 33.481L15.5607 35.6023L28.394 22.769L26.2727 20.6477Z" fill="#87CCE8"/>
</svg>
