<svg width="16" height="16" viewBox="0 0 16 16" fill="none" xmlns="http://www.w3.org/2000/svg">
<path d="M8.19526 4.47157C7.93491 4.21122 7.93491 3.78911 8.19526 3.52876C8.45561 3.26841 8.87772 3.26841 9.13807 3.52876L13.1381 7.52876C13.3905 7.78114 13.3993 8.18753 13.1581 8.45064L9.49144 12.4506C9.24264 12.722 8.82093 12.7404 8.54952 12.4916C8.2781 12.2428 8.25977 11.8211 8.50856 11.5497L11.7439 8.02021L8.19526 4.47157Z" fill="#49C5FD"/>
<path opacity="0.5" d="M3.52925 4.47157C3.2689 4.21122 3.2689 3.78911 3.52925 3.52876C3.7896 3.26841 4.21171 3.26841 4.47206 3.52876L8.47206 7.52876C8.72444 7.78114 8.73327 8.18753 8.49209 8.45064L4.82542 12.4506C4.57663 12.722 4.15491 12.7404 3.8835 12.4916C3.61209 12.2428 3.59375 11.8211 3.84255 11.5497L7.07789 8.02021L3.52925 4.47157Z" fill="#49C5FD"/>
</svg>
