<svg width="81" height="89" viewBox="0 0 81 89" fill="none" xmlns="http://www.w3.org/2000/svg">
<path d="M9.6625 89C8.0625 89 6.59583 89 5.2625 89C4.19583 88.7333 3.12917 88.4667 2.0625 88.2V77C5.79584 77 8.19584 76.0667 9.2625 74.2C10.5958 72.3333 11.2625 70.2 11.2625 67.8V47.8H7.6625C5.79583 47.8 4.19583 47.1333 2.8625 45.8C1.52917 44.4667 0.8625 42.6 0.8625 40.2V8.19998C0.8625 2.86665 3.12917 0.199985 7.6625 0.199985H26.8625C28.9958 0.199985 30.4625 0.999982 31.2625 2.59998C32.0625 4.19999 32.4625 6.06666 32.4625 8.19998V65.4C32.4625 72.0667 31.1292 77.1333 28.4625 80.6C26.0625 83.8 23.1292 86.0667 19.6625 87.4C16.1958 88.4667 12.8625 89 9.6625 89ZM57.2625 89C55.6625 89 54.1958 89 52.8625 89C51.7958 88.7333 50.7292 88.4667 49.6625 88.2V77C53.3958 77 55.7958 76.0667 56.8625 74.2C58.1958 72.3333 58.8625 70.2 58.8625 67.8V47.8H55.2625C53.3958 47.8 51.7958 47.1333 50.4625 45.8C49.1292 44.4667 48.4625 42.6 48.4625 40.2V8.19998C48.4625 2.86665 50.7292 0.199985 55.2625 0.199985H74.4625C76.5958 0.199985 78.0625 0.999982 78.8625 2.59998C79.6625 4.19999 80.0625 6.06666 80.0625 8.19998V65.4C80.0625 72.0667 78.7292 77.1333 76.0625 80.6C73.6625 83.8 70.7292 86.0667 67.2625 87.4C63.7958 88.4667 60.4625 89 57.2625 89Z" fill="#012D72"/>
</svg>
