<svg width="31" height="31" viewBox="0 0 31 31" fill="none" xmlns="http://www.w3.org/2000/svg">
<g opacity="0.3">
<path d="M30.1936 15.5C30.1936 23.789 23.5418 30.5 15.3468 30.5C7.15181 30.5 0.5 23.789 0.5 15.5C0.5 7.21104 7.15181 0.5 15.3468 0.5C23.5418 0.5 30.1936 7.21104 30.1936 15.5Z" fill="#C4C4C4"/>
<path d="M30.1936 15.5C30.1936 23.789 23.5418 30.5 15.3468 30.5C7.15181 30.5 0.5 23.789 0.5 15.5C0.5 7.21104 7.15181 0.5 15.3468 0.5C23.5418 0.5 30.1936 7.21104 30.1936 15.5Z" stroke="white"/>
<path d="M30.1936 15.5C30.1936 23.789 23.5418 30.5 15.3468 30.5C7.15181 30.5 0.5 23.789 0.5 15.5C0.5 7.21104 7.15181 0.5 15.3468 0.5C23.5418 0.5 30.1936 7.21104 30.1936 15.5Z" stroke="white"/>
<path d="M30.1936 15.5C30.1936 23.789 23.5418 30.5 15.3468 30.5C7.15181 30.5 0.5 23.789 0.5 15.5C0.5 7.21104 7.15181 0.5 15.3468 0.5C23.5418 0.5 30.1936 7.21104 30.1936 15.5Z" stroke="white"/>
<path d="M30.1936 15.5C30.1936 23.789 23.5418 30.5 15.3468 30.5C7.15181 30.5 0.5 23.789 0.5 15.5C0.5 7.21104 7.15181 0.5 15.3468 0.5C23.5418 0.5 30.1936 7.21104 30.1936 15.5Z" stroke="white"/>
</g>
<path d="M26.6906 15.6142C26.6906 21.9338 21.6277 27.057 15.3824 27.057C9.13706 27.057 4.07422 21.9338 4.07422 15.6142C4.07422 9.2945 9.13706 4.17139 15.3824 4.17139C21.6277 4.17139 26.6906 9.2945 26.6906 15.6142Z" fill="#49C5FD"/>
<path d="M26.6906 15.6142C26.6906 21.9338 21.6277 27.057 15.3824 27.057C9.13706 27.057 4.07422 21.9338 4.07422 15.6142C4.07422 9.2945 9.13706 4.17139 15.3824 4.17139C21.6277 4.17139 26.6906 9.2945 26.6906 15.6142Z" stroke="white"/>
<path d="M26.6906 15.6142C26.6906 21.9338 21.6277 27.057 15.3824 27.057C9.13706 27.057 4.07422 21.9338 4.07422 15.6142C4.07422 9.2945 9.13706 4.17139 15.3824 4.17139C21.6277 4.17139 26.6906 9.2945 26.6906 15.6142Z" stroke="white"/>
<path d="M26.6906 15.6142C26.6906 21.9338 21.6277 27.057 15.3824 27.057C9.13706 27.057 4.07422 21.9338 4.07422 15.6142C4.07422 9.2945 9.13706 4.17139 15.3824 4.17139C21.6277 4.17139 26.6906 9.2945 26.6906 15.6142Z" stroke="white"/>
<path d="M26.6906 15.6142C26.6906 21.9338 21.6277 27.057 15.3824 27.057C9.13706 27.057 4.07422 21.9338 4.07422 15.6142C4.07422 9.2945 9.13706 4.17139 15.3824 4.17139C21.6277 4.17139 26.6906 9.2945 26.6906 15.6142Z" stroke="white"/>
<path d="M20.2734 13.4827C21.5968 14.2544 21.5968 16.1665 20.2734 16.9382L14.411 20.3566C13.0777 21.1341 11.4035 20.1723 11.4035 18.6289L11.4035 11.792C11.4035 10.2486 13.0777 9.2868 14.411 10.0643L20.2734 13.4827Z" fill="white"/>
</svg>
