<svg width="54" height="54" viewBox="0 0 54 54" fill="none" xmlns="http://www.w3.org/2000/svg">
<path d="M27 52C40.8075 52 52 40.8075 52 27C52 13.1925 40.8075 2 27 2C13.1925 2 2 13.1925 2 27C2 40.8075 13.1925 52 27 52Z" stroke="#45C7EF" stroke-width="3" stroke-linecap="round" stroke-linejoin="round"/>
<path d="M27 37.9775V43.25M34.5 18.25C32.7875 16.5375 29.7725 15.3475 27 15.2725L34.5 18.25ZM19.5 34.5C21.11 36.65 24.1075 37.875 27 37.9775L19.5 34.5ZM27 15.2725C23.7 15.1825 20.75 16.675 20.75 20.75C20.75 28.25 34.5 24.5 34.5 32C34.5 36.2775 30.84 38.115 27 37.9775V15.2725ZM27 15.2725V10.75V15.2725Z" stroke="#45C7EF" stroke-width="3" stroke-linecap="round" stroke-linejoin="round"/>
</svg>
