<svg width="100" height="100" viewBox="0 0 100 100" fill="none" xmlns="http://www.w3.org/2000/svg">
<path d="M2 4C3.10457 4 4 3.10457 4 2C4 0.89543 3.10457 0 2 0C0.89543 0 0 0.89543 0 2C0 3.10457 0.89543 4 2 4Z" fill="url(#paint0_linear_2725_224)"/>
<path d="M12 4C13.1046 4 14 3.10457 14 2C14 0.89543 13.1046 0 12 0C10.8954 0 10 0.89543 10 2C10 3.10457 10.8954 4 12 4Z" fill="url(#paint1_linear_2725_224)"/>
<path d="M22 4C23.1046 4 24 3.10457 24 2C24 0.89543 23.1046 0 22 0C20.8954 0 20 0.89543 20 2C20 3.10457 20.8954 4 22 4Z" fill="url(#paint2_linear_2725_224)"/>
<path d="M32 4C33.1046 4 34 3.10457 34 2C34 0.89543 33.1046 0 32 0C30.8954 0 30 0.89543 30 2C30 3.10457 30.8954 4 32 4Z" fill="url(#paint3_linear_2725_224)"/>
<path d="M42 4C43.1046 4 44 3.10457 44 2C44 0.89543 43.1046 0 42 0C40.8954 0 40 0.89543 40 2C40 3.10457 40.8954 4 42 4Z" fill="url(#paint4_linear_2725_224)"/>
<path d="M52 4C53.1046 4 54 3.10457 54 2C54 0.89543 53.1046 0 52 0C50.8954 0 50 0.89543 50 2C50 3.10457 50.8954 4 52 4Z" fill="url(#paint5_linear_2725_224)"/>
<path d="M62 4C63.1046 4 64 3.10457 64 2C64 0.89543 63.1046 0 62 0C60.8954 0 60 0.89543 60 2C60 3.10457 60.8954 4 62 4Z" fill="url(#paint6_linear_2725_224)"/>
<path d="M72 4C73.1046 4 74 3.10457 74 2C74 0.89543 73.1046 0 72 0C70.8954 0 70 0.89543 70 2C70 3.10457 70.8954 4 72 4Z" fill="url(#paint7_linear_2725_224)"/>
<path d="M82 4C83.1046 4 84 3.10457 84 2C84 0.89543 83.1046 0 82 0C80.8954 0 80 0.89543 80 2C80 3.10457 80.8954 4 82 4Z" fill="url(#paint8_linear_2725_224)"/>
<path d="M92 4C93.1046 4 94 3.10457 94 2C94 0.89543 93.1046 0 92 0C90.8954 0 90 0.89543 90 2C90 3.10457 90.8954 4 92 4Z" fill="url(#paint9_linear_2725_224)"/>
<path d="M2 14C3.10457 14 4 13.1046 4 12C4 10.8954 3.10457 10 2 10C0.89543 10 0 10.8954 0 12C0 13.1046 0.89543 14 2 14Z" fill="url(#paint10_linear_2725_224)"/>
<path d="M12 14C13.1046 14 14 13.1046 14 12C14 10.8954 13.1046 10 12 10C10.8954 10 10 10.8954 10 12C10 13.1046 10.8954 14 12 14Z" fill="url(#paint11_linear_2725_224)"/>
<path d="M22 14C23.1046 14 24 13.1046 24 12C24 10.8954 23.1046 10 22 10C20.8954 10 20 10.8954 20 12C20 13.1046 20.8954 14 22 14Z" fill="url(#paint12_linear_2725_224)"/>
<path d="M32 14C33.1046 14 34 13.1046 34 12C34 10.8954 33.1046 10 32 10C30.8954 10 30 10.8954 30 12C30 13.1046 30.8954 14 32 14Z" fill="url(#paint13_linear_2725_224)"/>
<path d="M42 14C43.1046 14 44 13.1046 44 12C44 10.8954 43.1046 10 42 10C40.8954 10 40 10.8954 40 12C40 13.1046 40.8954 14 42 14Z" fill="url(#paint14_linear_2725_224)"/>
<path d="M52 14C53.1046 14 54 13.1046 54 12C54 10.8954 53.1046 10 52 10C50.8954 10 50 10.8954 50 12C50 13.1046 50.8954 14 52 14Z" fill="url(#paint15_linear_2725_224)"/>
<path d="M62 14C63.1046 14 64 13.1046 64 12C64 10.8954 63.1046 10 62 10C60.8954 10 60 10.8954 60 12C60 13.1046 60.8954 14 62 14Z" fill="url(#paint16_linear_2725_224)"/>
<path d="M72 14C73.1046 14 74 13.1046 74 12C74 10.8954 73.1046 10 72 10C70.8954 10 70 10.8954 70 12C70 13.1046 70.8954 14 72 14Z" fill="url(#paint17_linear_2725_224)"/>
<path d="M82 14C83.1046 14 84 13.1046 84 12C84 10.8954 83.1046 10 82 10C80.8954 10 80 10.8954 80 12C80 13.1046 80.8954 14 82 14Z" fill="url(#paint18_linear_2725_224)"/>
<path d="M92 14C93.1046 14 94 13.1046 94 12C94 10.8954 93.1046 10 92 10C90.8954 10 90 10.8954 90 12C90 13.1046 90.8954 14 92 14Z" fill="url(#paint19_linear_2725_224)"/>
<path d="M2 24C3.10457 24 4 23.1046 4 22C4 20.8954 3.10457 20 2 20C0.89543 20 0 20.8954 0 22C0 23.1046 0.89543 24 2 24Z" fill="url(#paint20_linear_2725_224)"/>
<path d="M12 24C13.1046 24 14 23.1046 14 22C14 20.8954 13.1046 20 12 20C10.8954 20 10 20.8954 10 22C10 23.1046 10.8954 24 12 24Z" fill="url(#paint21_linear_2725_224)"/>
<path d="M22 24C23.1046 24 24 23.1046 24 22C24 20.8954 23.1046 20 22 20C20.8954 20 20 20.8954 20 22C20 23.1046 20.8954 24 22 24Z" fill="url(#paint22_linear_2725_224)"/>
<path d="M32 24C33.1046 24 34 23.1046 34 22C34 20.8954 33.1046 20 32 20C30.8954 20 30 20.8954 30 22C30 23.1046 30.8954 24 32 24Z" fill="url(#paint23_linear_2725_224)"/>
<path d="M42 24C43.1046 24 44 23.1046 44 22C44 20.8954 43.1046 20 42 20C40.8954 20 40 20.8954 40 22C40 23.1046 40.8954 24 42 24Z" fill="url(#paint24_linear_2725_224)"/>
<path d="M52 24C53.1046 24 54 23.1046 54 22C54 20.8954 53.1046 20 52 20C50.8954 20 50 20.8954 50 22C50 23.1046 50.8954 24 52 24Z" fill="url(#paint25_linear_2725_224)"/>
<path d="M62 24C63.1046 24 64 23.1046 64 22C64 20.8954 63.1046 20 62 20C60.8954 20 60 20.8954 60 22C60 23.1046 60.8954 24 62 24Z" fill="url(#paint26_linear_2725_224)"/>
<path d="M72 24C73.1046 24 74 23.1046 74 22C74 20.8954 73.1046 20 72 20C70.8954 20 70 20.8954 70 22C70 23.1046 70.8954 24 72 24Z" fill="url(#paint27_linear_2725_224)"/>
<path d="M82 24C83.1046 24 84 23.1046 84 22C84 20.8954 83.1046 20 82 20C80.8954 20 80 20.8954 80 22C80 23.1046 80.8954 24 82 24Z" fill="url(#paint28_linear_2725_224)"/>
<path d="M92 24C93.1046 24 94 23.1046 94 22C94 20.8954 93.1046 20 92 20C90.8954 20 90 20.8954 90 22C90 23.1046 90.8954 24 92 24Z" fill="url(#paint29_linear_2725_224)"/>
<path d="M2 34C3.10457 34 4 33.1046 4 32C4 30.8954 3.10457 30 2 30C0.89543 30 0 30.8954 0 32C0 33.1046 0.89543 34 2 34Z" fill="url(#paint30_linear_2725_224)"/>
<path d="M12 34C13.1046 34 14 33.1046 14 32C14 30.8954 13.1046 30 12 30C10.8954 30 10 30.8954 10 32C10 33.1046 10.8954 34 12 34Z" fill="url(#paint31_linear_2725_224)"/>
<path d="M22 34C23.1046 34 24 33.1046 24 32C24 30.8954 23.1046 30 22 30C20.8954 30 20 30.8954 20 32C20 33.1046 20.8954 34 22 34Z" fill="url(#paint32_linear_2725_224)"/>
<path d="M32 34C33.1046 34 34 33.1046 34 32C34 30.8954 33.1046 30 32 30C30.8954 30 30 30.8954 30 32C30 33.1046 30.8954 34 32 34Z" fill="url(#paint33_linear_2725_224)"/>
<path d="M42 34C43.1046 34 44 33.1046 44 32C44 30.8954 43.1046 30 42 30C40.8954 30 40 30.8954 40 32C40 33.1046 40.8954 34 42 34Z" fill="url(#paint34_linear_2725_224)"/>
<path d="M52 34C53.1046 34 54 33.1046 54 32C54 30.8954 53.1046 30 52 30C50.8954 30 50 30.8954 50 32C50 33.1046 50.8954 34 52 34Z" fill="url(#paint35_linear_2725_224)"/>
<path d="M62 34C63.1046 34 64 33.1046 64 32C64 30.8954 63.1046 30 62 30C60.8954 30 60 30.8954 60 32C60 33.1046 60.8954 34 62 34Z" fill="url(#paint36_linear_2725_224)"/>
<path d="M72 34C73.1046 34 74 33.1046 74 32C74 30.8954 73.1046 30 72 30C70.8954 30 70 30.8954 70 32C70 33.1046 70.8954 34 72 34Z" fill="url(#paint37_linear_2725_224)"/>
<path d="M82 34C83.1046 34 84 33.1046 84 32C84 30.8954 83.1046 30 82 30C80.8954 30 80 30.8954 80 32C80 33.1046 80.8954 34 82 34Z" fill="url(#paint38_linear_2725_224)"/>
<path d="M92 34C93.1046 34 94 33.1046 94 32C94 30.8954 93.1046 30 92 30C90.8954 30 90 30.8954 90 32C90 33.1046 90.8954 34 92 34Z" fill="url(#paint39_linear_2725_224)"/>
<path d="M2 44C3.10457 44 4 43.1046 4 42C4 40.8954 3.10457 40 2 40C0.89543 40 0 40.8954 0 42C0 43.1046 0.89543 44 2 44Z" fill="url(#paint40_linear_2725_224)"/>
<path d="M12 44C13.1046 44 14 43.1046 14 42C14 40.8954 13.1046 40 12 40C10.8954 40 10 40.8954 10 42C10 43.1046 10.8954 44 12 44Z" fill="url(#paint41_linear_2725_224)"/>
<path d="M22 44C23.1046 44 24 43.1046 24 42C24 40.8954 23.1046 40 22 40C20.8954 40 20 40.8954 20 42C20 43.1046 20.8954 44 22 44Z" fill="url(#paint42_linear_2725_224)"/>
<path d="M32 44C33.1046 44 34 43.1046 34 42C34 40.8954 33.1046 40 32 40C30.8954 40 30 40.8954 30 42C30 43.1046 30.8954 44 32 44Z" fill="url(#paint43_linear_2725_224)"/>
<path d="M42 44C43.1046 44 44 43.1046 44 42C44 40.8954 43.1046 40 42 40C40.8954 40 40 40.8954 40 42C40 43.1046 40.8954 44 42 44Z" fill="url(#paint44_linear_2725_224)"/>
<path d="M52 44C53.1046 44 54 43.1046 54 42C54 40.8954 53.1046 40 52 40C50.8954 40 50 40.8954 50 42C50 43.1046 50.8954 44 52 44Z" fill="url(#paint45_linear_2725_224)"/>
<path d="M62 44C63.1046 44 64 43.1046 64 42C64 40.8954 63.1046 40 62 40C60.8954 40 60 40.8954 60 42C60 43.1046 60.8954 44 62 44Z" fill="url(#paint46_linear_2725_224)"/>
<path d="M72 44C73.1046 44 74 43.1046 74 42C74 40.8954 73.1046 40 72 40C70.8954 40 70 40.8954 70 42C70 43.1046 70.8954 44 72 44Z" fill="url(#paint47_linear_2725_224)"/>
<path d="M82 44C83.1046 44 84 43.1046 84 42C84 40.8954 83.1046 40 82 40C80.8954 40 80 40.8954 80 42C80 43.1046 80.8954 44 82 44Z" fill="url(#paint48_linear_2725_224)"/>
<path d="M92 44C93.1046 44 94 43.1046 94 42C94 40.8954 93.1046 40 92 40C90.8954 40 90 40.8954 90 42C90 43.1046 90.8954 44 92 44Z" fill="url(#paint49_linear_2725_224)"/>
<path d="M2 54C3.10457 54 4 53.1046 4 52C4 50.8954 3.10457 50 2 50C0.89543 50 0 50.8954 0 52C0 53.1046 0.89543 54 2 54Z" fill="url(#paint50_linear_2725_224)"/>
<path d="M12 54C13.1046 54 14 53.1046 14 52C14 50.8954 13.1046 50 12 50C10.8954 50 10 50.8954 10 52C10 53.1046 10.8954 54 12 54Z" fill="url(#paint51_linear_2725_224)"/>
<path d="M22 54C23.1046 54 24 53.1046 24 52C24 50.8954 23.1046 50 22 50C20.8954 50 20 50.8954 20 52C20 53.1046 20.8954 54 22 54Z" fill="url(#paint52_linear_2725_224)"/>
<path d="M32 54C33.1046 54 34 53.1046 34 52C34 50.8954 33.1046 50 32 50C30.8954 50 30 50.8954 30 52C30 53.1046 30.8954 54 32 54Z" fill="url(#paint53_linear_2725_224)"/>
<path d="M42 54C43.1046 54 44 53.1046 44 52C44 50.8954 43.1046 50 42 50C40.8954 50 40 50.8954 40 52C40 53.1046 40.8954 54 42 54Z" fill="url(#paint54_linear_2725_224)"/>
<path d="M52 54C53.1046 54 54 53.1046 54 52C54 50.8954 53.1046 50 52 50C50.8954 50 50 50.8954 50 52C50 53.1046 50.8954 54 52 54Z" fill="url(#paint55_linear_2725_224)"/>
<path d="M62 54C63.1046 54 64 53.1046 64 52C64 50.8954 63.1046 50 62 50C60.8954 50 60 50.8954 60 52C60 53.1046 60.8954 54 62 54Z" fill="url(#paint56_linear_2725_224)"/>
<path d="M72 54C73.1046 54 74 53.1046 74 52C74 50.8954 73.1046 50 72 50C70.8954 50 70 50.8954 70 52C70 53.1046 70.8954 54 72 54Z" fill="url(#paint57_linear_2725_224)"/>
<path d="M82 54C83.1046 54 84 53.1046 84 52C84 50.8954 83.1046 50 82 50C80.8954 50 80 50.8954 80 52C80 53.1046 80.8954 54 82 54Z" fill="url(#paint58_linear_2725_224)"/>
<path d="M92 54C93.1046 54 94 53.1046 94 52C94 50.8954 93.1046 50 92 50C90.8954 50 90 50.8954 90 52C90 53.1046 90.8954 54 92 54Z" fill="url(#paint59_linear_2725_224)"/>
<path d="M2 64C3.10457 64 4 63.1046 4 62C4 60.8954 3.10457 60 2 60C0.89543 60 0 60.8954 0 62C0 63.1046 0.89543 64 2 64Z" fill="url(#paint60_linear_2725_224)"/>
<path d="M12 64C13.1046 64 14 63.1046 14 62C14 60.8954 13.1046 60 12 60C10.8954 60 10 60.8954 10 62C10 63.1046 10.8954 64 12 64Z" fill="url(#paint61_linear_2725_224)"/>
<path d="M22 64C23.1046 64 24 63.1046 24 62C24 60.8954 23.1046 60 22 60C20.8954 60 20 60.8954 20 62C20 63.1046 20.8954 64 22 64Z" fill="url(#paint62_linear_2725_224)"/>
<path d="M32 64C33.1046 64 34 63.1046 34 62C34 60.8954 33.1046 60 32 60C30.8954 60 30 60.8954 30 62C30 63.1046 30.8954 64 32 64Z" fill="url(#paint63_linear_2725_224)"/>
<path d="M42 64C43.1046 64 44 63.1046 44 62C44 60.8954 43.1046 60 42 60C40.8954 60 40 60.8954 40 62C40 63.1046 40.8954 64 42 64Z" fill="url(#paint64_linear_2725_224)"/>
<path d="M52 64C53.1046 64 54 63.1046 54 62C54 60.8954 53.1046 60 52 60C50.8954 60 50 60.8954 50 62C50 63.1046 50.8954 64 52 64Z" fill="url(#paint65_linear_2725_224)"/>
<path d="M62 64C63.1046 64 64 63.1046 64 62C64 60.8954 63.1046 60 62 60C60.8954 60 60 60.8954 60 62C60 63.1046 60.8954 64 62 64Z" fill="url(#paint66_linear_2725_224)"/>
<path d="M72 64C73.1046 64 74 63.1046 74 62C74 60.8954 73.1046 60 72 60C70.8954 60 70 60.8954 70 62C70 63.1046 70.8954 64 72 64Z" fill="url(#paint67_linear_2725_224)"/>
<path d="M82 64C83.1046 64 84 63.1046 84 62C84 60.8954 83.1046 60 82 60C80.8954 60 80 60.8954 80 62C80 63.1046 80.8954 64 82 64Z" fill="url(#paint68_linear_2725_224)"/>
<path d="M92 64C93.1046 64 94 63.1046 94 62C94 60.8954 93.1046 60 92 60C90.8954 60 90 60.8954 90 62C90 63.1046 90.8954 64 92 64Z" fill="url(#paint69_linear_2725_224)"/>
<path d="M2 74C3.10457 74 4 73.1046 4 72C4 70.8954 3.10457 70 2 70C0.89543 70 0 70.8954 0 72C0 73.1046 0.89543 74 2 74Z" fill="url(#paint70_linear_2725_224)"/>
<path d="M12 74C13.1046 74 14 73.1046 14 72C14 70.8954 13.1046 70 12 70C10.8954 70 10 70.8954 10 72C10 73.1046 10.8954 74 12 74Z" fill="url(#paint71_linear_2725_224)"/>
<path d="M22 74C23.1046 74 24 73.1046 24 72C24 70.8954 23.1046 70 22 70C20.8954 70 20 70.8954 20 72C20 73.1046 20.8954 74 22 74Z" fill="url(#paint72_linear_2725_224)"/>
<path d="M32 74C33.1046 74 34 73.1046 34 72C34 70.8954 33.1046 70 32 70C30.8954 70 30 70.8954 30 72C30 73.1046 30.8954 74 32 74Z" fill="url(#paint73_linear_2725_224)"/>
<path d="M42 74C43.1046 74 44 73.1046 44 72C44 70.8954 43.1046 70 42 70C40.8954 70 40 70.8954 40 72C40 73.1046 40.8954 74 42 74Z" fill="url(#paint74_linear_2725_224)"/>
<path d="M52 74C53.1046 74 54 73.1046 54 72C54 70.8954 53.1046 70 52 70C50.8954 70 50 70.8954 50 72C50 73.1046 50.8954 74 52 74Z" fill="url(#paint75_linear_2725_224)"/>
<path d="M62 74C63.1046 74 64 73.1046 64 72C64 70.8954 63.1046 70 62 70C60.8954 70 60 70.8954 60 72C60 73.1046 60.8954 74 62 74Z" fill="url(#paint76_linear_2725_224)"/>
<path d="M72 74C73.1046 74 74 73.1046 74 72C74 70.8954 73.1046 70 72 70C70.8954 70 70 70.8954 70 72C70 73.1046 70.8954 74 72 74Z" fill="url(#paint77_linear_2725_224)"/>
<path d="M82 74C83.1046 74 84 73.1046 84 72C84 70.8954 83.1046 70 82 70C80.8954 70 80 70.8954 80 72C80 73.1046 80.8954 74 82 74Z" fill="url(#paint78_linear_2725_224)"/>
<path d="M92 74C93.1046 74 94 73.1046 94 72C94 70.8954 93.1046 70 92 70C90.8954 70 90 70.8954 90 72C90 73.1046 90.8954 74 92 74Z" fill="url(#paint79_linear_2725_224)"/>
<path d="M2 84C3.10457 84 4 83.1046 4 82C4 80.8954 3.10457 80 2 80C0.89543 80 0 80.8954 0 82C0 83.1046 0.89543 84 2 84Z" fill="url(#paint80_linear_2725_224)"/>
<path d="M12 84C13.1046 84 14 83.1046 14 82C14 80.8954 13.1046 80 12 80C10.8954 80 10 80.8954 10 82C10 83.1046 10.8954 84 12 84Z" fill="url(#paint81_linear_2725_224)"/>
<path d="M22 84C23.1046 84 24 83.1046 24 82C24 80.8954 23.1046 80 22 80C20.8954 80 20 80.8954 20 82C20 83.1046 20.8954 84 22 84Z" fill="url(#paint82_linear_2725_224)"/>
<path d="M32 84C33.1046 84 34 83.1046 34 82C34 80.8954 33.1046 80 32 80C30.8954 80 30 80.8954 30 82C30 83.1046 30.8954 84 32 84Z" fill="url(#paint83_linear_2725_224)"/>
<path d="M42 84C43.1046 84 44 83.1046 44 82C44 80.8954 43.1046 80 42 80C40.8954 80 40 80.8954 40 82C40 83.1046 40.8954 84 42 84Z" fill="url(#paint84_linear_2725_224)"/>
<path d="M52 84C53.1046 84 54 83.1046 54 82C54 80.8954 53.1046 80 52 80C50.8954 80 50 80.8954 50 82C50 83.1046 50.8954 84 52 84Z" fill="url(#paint85_linear_2725_224)"/>
<path d="M62 84C63.1046 84 64 83.1046 64 82C64 80.8954 63.1046 80 62 80C60.8954 80 60 80.8954 60 82C60 83.1046 60.8954 84 62 84Z" fill="url(#paint86_linear_2725_224)"/>
<path d="M72 84C73.1046 84 74 83.1046 74 82C74 80.8954 73.1046 80 72 80C70.8954 80 70 80.8954 70 82C70 83.1046 70.8954 84 72 84Z" fill="url(#paint87_linear_2725_224)"/>
<path d="M82 84C83.1046 84 84 83.1046 84 82C84 80.8954 83.1046 80 82 80C80.8954 80 80 80.8954 80 82C80 83.1046 80.8954 84 82 84Z" fill="url(#paint88_linear_2725_224)"/>
<path d="M92 84C93.1046 84 94 83.1046 94 82C94 80.8954 93.1046 80 92 80C90.8954 80 90 80.8954 90 82C90 83.1046 90.8954 84 92 84Z" fill="url(#paint89_linear_2725_224)"/>
<path d="M2 94C3.10457 94 4 93.1046 4 92C4 90.8954 3.10457 90 2 90C0.89543 90 0 90.8954 0 92C0 93.1046 0.89543 94 2 94Z" fill="url(#paint90_linear_2725_224)"/>
<path d="M12 94C13.1046 94 14 93.1046 14 92C14 90.8954 13.1046 90 12 90C10.8954 90 10 90.8954 10 92C10 93.1046 10.8954 94 12 94Z" fill="url(#paint91_linear_2725_224)"/>
<path d="M22 94C23.1046 94 24 93.1046 24 92C24 90.8954 23.1046 90 22 90C20.8954 90 20 90.8954 20 92C20 93.1046 20.8954 94 22 94Z" fill="url(#paint92_linear_2725_224)"/>
<path d="M32 94C33.1046 94 34 93.1046 34 92C34 90.8954 33.1046 90 32 90C30.8954 90 30 90.8954 30 92C30 93.1046 30.8954 94 32 94Z" fill="url(#paint93_linear_2725_224)"/>
<path d="M42 94C43.1046 94 44 93.1046 44 92C44 90.8954 43.1046 90 42 90C40.8954 90 40 90.8954 40 92C40 93.1046 40.8954 94 42 94Z" fill="url(#paint94_linear_2725_224)"/>
<path d="M52 94C53.1046 94 54 93.1046 54 92C54 90.8954 53.1046 90 52 90C50.8954 90 50 90.8954 50 92C50 93.1046 50.8954 94 52 94Z" fill="url(#paint95_linear_2725_224)"/>
<path d="M62 94C63.1046 94 64 93.1046 64 92C64 90.8954 63.1046 90 62 90C60.8954 90 60 90.8954 60 92C60 93.1046 60.8954 94 62 94Z" fill="url(#paint96_linear_2725_224)"/>
<path d="M72 94C73.1046 94 74 93.1046 74 92C74 90.8954 73.1046 90 72 90C70.8954 90 70 90.8954 70 92C70 93.1046 70.8954 94 72 94Z" fill="url(#paint97_linear_2725_224)"/>
<path d="M82 94C83.1046 94 84 93.1046 84 92C84 90.8954 83.1046 90 82 90C80.8954 90 80 90.8954 80 92C80 93.1046 80.8954 94 82 94Z" fill="url(#paint98_linear_2725_224)"/>
<path d="M92 94C93.1046 94 94 93.1046 94 92C94 90.8954 93.1046 90 92 90C90.8954 90 90 90.8954 90 92C90 93.1046 90.8954 94 92 94Z" fill="url(#paint99_linear_2725_224)"/>
<defs>
<linearGradient id="paint0_linear_2725_224" x1="2" y1="0" x2="2" y2="4" gradientUnits="userSpaceOnUse">
<stop stop-color="#0BB590"/>
<stop offset="0.0001" stop-color="#4801A1"/>
<stop offset="0.9669" stop-color="#00D7D7"/>
</linearGradient>
<linearGradient id="paint1_linear_2725_224" x1="12" y1="0" x2="12" y2="4" gradientUnits="userSpaceOnUse">
<stop stop-color="#0BB590"/>
<stop offset="0.0001" stop-color="#4801A1"/>
<stop offset="0.9669" stop-color="#00D7D7"/>
</linearGradient>
<linearGradient id="paint2_linear_2725_224" x1="22" y1="0" x2="22" y2="4" gradientUnits="userSpaceOnUse">
<stop stop-color="#0BB590"/>
<stop offset="0.0001" stop-color="#4801A1"/>
<stop offset="0.9669" stop-color="#00D7D7"/>
</linearGradient>
<linearGradient id="paint3_linear_2725_224" x1="32" y1="0" x2="32" y2="4" gradientUnits="userSpaceOnUse">
<stop stop-color="#0BB590"/>
<stop offset="0.0001" stop-color="#4801A1"/>
<stop offset="0.9669" stop-color="#00D7D7"/>
</linearGradient>
<linearGradient id="paint4_linear_2725_224" x1="42" y1="0" x2="42" y2="4" gradientUnits="userSpaceOnUse">
<stop stop-color="#0BB590"/>
<stop offset="0.0001" stop-color="#4801A1"/>
<stop offset="0.9669" stop-color="#00D7D7"/>
</linearGradient>
<linearGradient id="paint5_linear_2725_224" x1="52" y1="0" x2="52" y2="4" gradientUnits="userSpaceOnUse">
<stop stop-color="#0BB590"/>
<stop offset="0.0001" stop-color="#4801A1"/>
<stop offset="0.9669" stop-color="#00D7D7"/>
</linearGradient>
<linearGradient id="paint6_linear_2725_224" x1="62" y1="0" x2="62" y2="4" gradientUnits="userSpaceOnUse">
<stop stop-color="#0BB590"/>
<stop offset="0.0001" stop-color="#4801A1"/>
<stop offset="0.9669" stop-color="#00D7D7"/>
</linearGradient>
<linearGradient id="paint7_linear_2725_224" x1="72" y1="0" x2="72" y2="4" gradientUnits="userSpaceOnUse">
<stop stop-color="#0BB590"/>
<stop offset="0.0001" stop-color="#4801A1"/>
<stop offset="0.9669" stop-color="#00D7D7"/>
</linearGradient>
<linearGradient id="paint8_linear_2725_224" x1="82" y1="0" x2="82" y2="4" gradientUnits="userSpaceOnUse">
<stop stop-color="#0BB590"/>
<stop offset="0.0001" stop-color="#4801A1"/>
<stop offset="0.9669" stop-color="#00D7D7"/>
</linearGradient>
<linearGradient id="paint9_linear_2725_224" x1="92" y1="0" x2="92" y2="4" gradientUnits="userSpaceOnUse">
<stop stop-color="#0BB590"/>
<stop offset="0.0001" stop-color="#4801A1"/>
<stop offset="0.9669" stop-color="#00D7D7"/>
</linearGradient>
<linearGradient id="paint10_linear_2725_224" x1="2" y1="10" x2="2" y2="14" gradientUnits="userSpaceOnUse">
<stop stop-color="#0BB590"/>
<stop offset="0.0001" stop-color="#4801A1"/>
<stop offset="0.9669" stop-color="#00D7D7"/>
</linearGradient>
<linearGradient id="paint11_linear_2725_224" x1="12" y1="10" x2="12" y2="14" gradientUnits="userSpaceOnUse">
<stop stop-color="#0BB590"/>
<stop offset="0.0001" stop-color="#4801A1"/>
<stop offset="0.9669" stop-color="#00D7D7"/>
</linearGradient>
<linearGradient id="paint12_linear_2725_224" x1="22" y1="10" x2="22" y2="14" gradientUnits="userSpaceOnUse">
<stop stop-color="#0BB590"/>
<stop offset="0.0001" stop-color="#4801A1"/>
<stop offset="0.9669" stop-color="#00D7D7"/>
</linearGradient>
<linearGradient id="paint13_linear_2725_224" x1="32" y1="10" x2="32" y2="14" gradientUnits="userSpaceOnUse">
<stop stop-color="#0BB590"/>
<stop offset="0.0001" stop-color="#4801A1"/>
<stop offset="0.9669" stop-color="#00D7D7"/>
</linearGradient>
<linearGradient id="paint14_linear_2725_224" x1="42" y1="10" x2="42" y2="14" gradientUnits="userSpaceOnUse">
<stop stop-color="#0BB590"/>
<stop offset="0.0001" stop-color="#4801A1"/>
<stop offset="0.9669" stop-color="#00D7D7"/>
</linearGradient>
<linearGradient id="paint15_linear_2725_224" x1="52" y1="10" x2="52" y2="14" gradientUnits="userSpaceOnUse">
<stop stop-color="#0BB590"/>
<stop offset="0.0001" stop-color="#4801A1"/>
<stop offset="0.9669" stop-color="#00D7D7"/>
</linearGradient>
<linearGradient id="paint16_linear_2725_224" x1="62" y1="10" x2="62" y2="14" gradientUnits="userSpaceOnUse">
<stop stop-color="#0BB590"/>
<stop offset="0.0001" stop-color="#4801A1"/>
<stop offset="0.9669" stop-color="#00D7D7"/>
</linearGradient>
<linearGradient id="paint17_linear_2725_224" x1="72" y1="10" x2="72" y2="14" gradientUnits="userSpaceOnUse">
<stop stop-color="#0BB590"/>
<stop offset="0.0001" stop-color="#4801A1"/>
<stop offset="0.9669" stop-color="#00D7D7"/>
</linearGradient>
<linearGradient id="paint18_linear_2725_224" x1="82" y1="10" x2="82" y2="14" gradientUnits="userSpaceOnUse">
<stop stop-color="#0BB590"/>
<stop offset="0.0001" stop-color="#4801A1"/>
<stop offset="0.9669" stop-color="#00D7D7"/>
</linearGradient>
<linearGradient id="paint19_linear_2725_224" x1="92" y1="10" x2="92" y2="14" gradientUnits="userSpaceOnUse">
<stop stop-color="#0BB590"/>
<stop offset="0.0001" stop-color="#4801A1"/>
<stop offset="0.9669" stop-color="#00D7D7"/>
</linearGradient>
<linearGradient id="paint20_linear_2725_224" x1="2" y1="20" x2="2" y2="24" gradientUnits="userSpaceOnUse">
<stop stop-color="#0BB590"/>
<stop offset="0.0001" stop-color="#4801A1"/>
<stop offset="0.9669" stop-color="#00D7D7"/>
</linearGradient>
<linearGradient id="paint21_linear_2725_224" x1="12" y1="20" x2="12" y2="24" gradientUnits="userSpaceOnUse">
<stop stop-color="#0BB590"/>
<stop offset="0.0001" stop-color="#4801A1"/>
<stop offset="0.9669" stop-color="#00D7D7"/>
</linearGradient>
<linearGradient id="paint22_linear_2725_224" x1="22" y1="20" x2="22" y2="24" gradientUnits="userSpaceOnUse">
<stop stop-color="#0BB590"/>
<stop offset="0.0001" stop-color="#4801A1"/>
<stop offset="0.9669" stop-color="#00D7D7"/>
</linearGradient>
<linearGradient id="paint23_linear_2725_224" x1="32" y1="20" x2="32" y2="24" gradientUnits="userSpaceOnUse">
<stop stop-color="#0BB590"/>
<stop offset="0.0001" stop-color="#4801A1"/>
<stop offset="0.9669" stop-color="#00D7D7"/>
</linearGradient>
<linearGradient id="paint24_linear_2725_224" x1="42" y1="20" x2="42" y2="24" gradientUnits="userSpaceOnUse">
<stop stop-color="#0BB590"/>
<stop offset="0.0001" stop-color="#4801A1"/>
<stop offset="0.9669" stop-color="#00D7D7"/>
</linearGradient>
<linearGradient id="paint25_linear_2725_224" x1="52" y1="20" x2="52" y2="24" gradientUnits="userSpaceOnUse">
<stop stop-color="#0BB590"/>
<stop offset="0.0001" stop-color="#4801A1"/>
<stop offset="0.9669" stop-color="#00D7D7"/>
</linearGradient>
<linearGradient id="paint26_linear_2725_224" x1="62" y1="20" x2="62" y2="24" gradientUnits="userSpaceOnUse">
<stop stop-color="#0BB590"/>
<stop offset="0.0001" stop-color="#4801A1"/>
<stop offset="0.9669" stop-color="#00D7D7"/>
</linearGradient>
<linearGradient id="paint27_linear_2725_224" x1="72" y1="20" x2="72" y2="24" gradientUnits="userSpaceOnUse">
<stop stop-color="#0BB590"/>
<stop offset="0.0001" stop-color="#4801A1"/>
<stop offset="0.9669" stop-color="#00D7D7"/>
</linearGradient>
<linearGradient id="paint28_linear_2725_224" x1="82" y1="20" x2="82" y2="24" gradientUnits="userSpaceOnUse">
<stop stop-color="#0BB590"/>
<stop offset="0.0001" stop-color="#4801A1"/>
<stop offset="0.9669" stop-color="#00D7D7"/>
</linearGradient>
<linearGradient id="paint29_linear_2725_224" x1="92" y1="20" x2="92" y2="24" gradientUnits="userSpaceOnUse">
<stop stop-color="#0BB590"/>
<stop offset="0.0001" stop-color="#4801A1"/>
<stop offset="0.9669" stop-color="#00D7D7"/>
</linearGradient>
<linearGradient id="paint30_linear_2725_224" x1="2" y1="30" x2="2" y2="34" gradientUnits="userSpaceOnUse">
<stop stop-color="#0BB590"/>
<stop offset="0.0001" stop-color="#4801A1"/>
<stop offset="0.9669" stop-color="#00D7D7"/>
</linearGradient>
<linearGradient id="paint31_linear_2725_224" x1="12" y1="30" x2="12" y2="34" gradientUnits="userSpaceOnUse">
<stop stop-color="#0BB590"/>
<stop offset="0.0001" stop-color="#4801A1"/>
<stop offset="0.9669" stop-color="#00D7D7"/>
</linearGradient>
<linearGradient id="paint32_linear_2725_224" x1="22" y1="30" x2="22" y2="34" gradientUnits="userSpaceOnUse">
<stop stop-color="#0BB590"/>
<stop offset="0.0001" stop-color="#4801A1"/>
<stop offset="0.9669" stop-color="#00D7D7"/>
</linearGradient>
<linearGradient id="paint33_linear_2725_224" x1="32" y1="30" x2="32" y2="34" gradientUnits="userSpaceOnUse">
<stop stop-color="#0BB590"/>
<stop offset="0.0001" stop-color="#4801A1"/>
<stop offset="0.9669" stop-color="#00D7D7"/>
</linearGradient>
<linearGradient id="paint34_linear_2725_224" x1="42" y1="30" x2="42" y2="34" gradientUnits="userSpaceOnUse">
<stop stop-color="#0BB590"/>
<stop offset="0.0001" stop-color="#4801A1"/>
<stop offset="0.9669" stop-color="#00D7D7"/>
</linearGradient>
<linearGradient id="paint35_linear_2725_224" x1="52" y1="30" x2="52" y2="34" gradientUnits="userSpaceOnUse">
<stop stop-color="#0BB590"/>
<stop offset="0.0001" stop-color="#4801A1"/>
<stop offset="0.9669" stop-color="#00D7D7"/>
</linearGradient>
<linearGradient id="paint36_linear_2725_224" x1="62" y1="30" x2="62" y2="34" gradientUnits="userSpaceOnUse">
<stop stop-color="#0BB590"/>
<stop offset="0.0001" stop-color="#4801A1"/>
<stop offset="0.9669" stop-color="#00D7D7"/>
</linearGradient>
<linearGradient id="paint37_linear_2725_224" x1="72" y1="30" x2="72" y2="34" gradientUnits="userSpaceOnUse">
<stop stop-color="#0BB590"/>
<stop offset="0.0001" stop-color="#4801A1"/>
<stop offset="0.9669" stop-color="#00D7D7"/>
</linearGradient>
<linearGradient id="paint38_linear_2725_224" x1="82" y1="30" x2="82" y2="34" gradientUnits="userSpaceOnUse">
<stop stop-color="#0BB590"/>
<stop offset="0.0001" stop-color="#4801A1"/>
<stop offset="0.9669" stop-color="#00D7D7"/>
</linearGradient>
<linearGradient id="paint39_linear_2725_224" x1="92" y1="30" x2="92" y2="34" gradientUnits="userSpaceOnUse">
<stop stop-color="#0BB590"/>
<stop offset="0.0001" stop-color="#4801A1"/>
<stop offset="0.9669" stop-color="#00D7D7"/>
</linearGradient>
<linearGradient id="paint40_linear_2725_224" x1="2" y1="40" x2="2" y2="44" gradientUnits="userSpaceOnUse">
<stop stop-color="#0BB590"/>
<stop offset="0.0001" stop-color="#4801A1"/>
<stop offset="0.9669" stop-color="#00D7D7"/>
</linearGradient>
<linearGradient id="paint41_linear_2725_224" x1="12" y1="40" x2="12" y2="44" gradientUnits="userSpaceOnUse">
<stop stop-color="#0BB590"/>
<stop offset="0.0001" stop-color="#4801A1"/>
<stop offset="0.9669" stop-color="#00D7D7"/>
</linearGradient>
<linearGradient id="paint42_linear_2725_224" x1="22" y1="40" x2="22" y2="44" gradientUnits="userSpaceOnUse">
<stop stop-color="#0BB590"/>
<stop offset="0.0001" stop-color="#4801A1"/>
<stop offset="0.9669" stop-color="#00D7D7"/>
</linearGradient>
<linearGradient id="paint43_linear_2725_224" x1="32" y1="40" x2="32" y2="44" gradientUnits="userSpaceOnUse">
<stop stop-color="#0BB590"/>
<stop offset="0.0001" stop-color="#4801A1"/>
<stop offset="0.9669" stop-color="#00D7D7"/>
</linearGradient>
<linearGradient id="paint44_linear_2725_224" x1="42" y1="40" x2="42" y2="44" gradientUnits="userSpaceOnUse">
<stop stop-color="#0BB590"/>
<stop offset="0.0001" stop-color="#4801A1"/>
<stop offset="0.9669" stop-color="#00D7D7"/>
</linearGradient>
<linearGradient id="paint45_linear_2725_224" x1="52" y1="40" x2="52" y2="44" gradientUnits="userSpaceOnUse">
<stop stop-color="#0BB590"/>
<stop offset="0.0001" stop-color="#4801A1"/>
<stop offset="0.9669" stop-color="#00D7D7"/>
</linearGradient>
<linearGradient id="paint46_linear_2725_224" x1="62" y1="40" x2="62" y2="44" gradientUnits="userSpaceOnUse">
<stop stop-color="#0BB590"/>
<stop offset="0.0001" stop-color="#4801A1"/>
<stop offset="0.9669" stop-color="#00D7D7"/>
</linearGradient>
<linearGradient id="paint47_linear_2725_224" x1="72" y1="40" x2="72" y2="44" gradientUnits="userSpaceOnUse">
<stop stop-color="#0BB590"/>
<stop offset="0.0001" stop-color="#4801A1"/>
<stop offset="0.9669" stop-color="#00D7D7"/>
</linearGradient>
<linearGradient id="paint48_linear_2725_224" x1="82" y1="40" x2="82" y2="44" gradientUnits="userSpaceOnUse">
<stop stop-color="#0BB590"/>
<stop offset="0.0001" stop-color="#4801A1"/>
<stop offset="0.9669" stop-color="#00D7D7"/>
</linearGradient>
<linearGradient id="paint49_linear_2725_224" x1="92" y1="40" x2="92" y2="44" gradientUnits="userSpaceOnUse">
<stop stop-color="#0BB590"/>
<stop offset="0.0001" stop-color="#4801A1"/>
<stop offset="0.9669" stop-color="#00D7D7"/>
</linearGradient>
<linearGradient id="paint50_linear_2725_224" x1="2" y1="50" x2="2" y2="54" gradientUnits="userSpaceOnUse">
<stop stop-color="#0BB590"/>
<stop offset="0.0001" stop-color="#4801A1"/>
<stop offset="0.9669" stop-color="#00D7D7"/>
</linearGradient>
<linearGradient id="paint51_linear_2725_224" x1="12" y1="50" x2="12" y2="54" gradientUnits="userSpaceOnUse">
<stop stop-color="#0BB590"/>
<stop offset="0.0001" stop-color="#4801A1"/>
<stop offset="0.9669" stop-color="#00D7D7"/>
</linearGradient>
<linearGradient id="paint52_linear_2725_224" x1="22" y1="50" x2="22" y2="54" gradientUnits="userSpaceOnUse">
<stop stop-color="#0BB590"/>
<stop offset="0.0001" stop-color="#4801A1"/>
<stop offset="0.9669" stop-color="#00D7D7"/>
</linearGradient>
<linearGradient id="paint53_linear_2725_224" x1="32" y1="50" x2="32" y2="54" gradientUnits="userSpaceOnUse">
<stop stop-color="#0BB590"/>
<stop offset="0.0001" stop-color="#4801A1"/>
<stop offset="0.9669" stop-color="#00D7D7"/>
</linearGradient>
<linearGradient id="paint54_linear_2725_224" x1="42" y1="50" x2="42" y2="54" gradientUnits="userSpaceOnUse">
<stop stop-color="#0BB590"/>
<stop offset="0.0001" stop-color="#4801A1"/>
<stop offset="0.9669" stop-color="#00D7D7"/>
</linearGradient>
<linearGradient id="paint55_linear_2725_224" x1="52" y1="50" x2="52" y2="54" gradientUnits="userSpaceOnUse">
<stop stop-color="#0BB590"/>
<stop offset="0.0001" stop-color="#4801A1"/>
<stop offset="0.9669" stop-color="#00D7D7"/>
</linearGradient>
<linearGradient id="paint56_linear_2725_224" x1="62" y1="50" x2="62" y2="54" gradientUnits="userSpaceOnUse">
<stop stop-color="#0BB590"/>
<stop offset="0.0001" stop-color="#4801A1"/>
<stop offset="0.9669" stop-color="#00D7D7"/>
</linearGradient>
<linearGradient id="paint57_linear_2725_224" x1="72" y1="50" x2="72" y2="54" gradientUnits="userSpaceOnUse">
<stop stop-color="#0BB590"/>
<stop offset="0.0001" stop-color="#4801A1"/>
<stop offset="0.9669" stop-color="#00D7D7"/>
</linearGradient>
<linearGradient id="paint58_linear_2725_224" x1="82" y1="50" x2="82" y2="54" gradientUnits="userSpaceOnUse">
<stop stop-color="#0BB590"/>
<stop offset="0.0001" stop-color="#4801A1"/>
<stop offset="0.9669" stop-color="#00D7D7"/>
</linearGradient>
<linearGradient id="paint59_linear_2725_224" x1="92" y1="50" x2="92" y2="54" gradientUnits="userSpaceOnUse">
<stop stop-color="#0BB590"/>
<stop offset="0.0001" stop-color="#4801A1"/>
<stop offset="0.9669" stop-color="#00D7D7"/>
</linearGradient>
<linearGradient id="paint60_linear_2725_224" x1="2" y1="60" x2="2" y2="64" gradientUnits="userSpaceOnUse">
<stop stop-color="#0BB590"/>
<stop offset="0.0001" stop-color="#4801A1"/>
<stop offset="0.9669" stop-color="#00D7D7"/>
</linearGradient>
<linearGradient id="paint61_linear_2725_224" x1="12" y1="60" x2="12" y2="64" gradientUnits="userSpaceOnUse">
<stop stop-color="#0BB590"/>
<stop offset="0.0001" stop-color="#4801A1"/>
<stop offset="0.9669" stop-color="#00D7D7"/>
</linearGradient>
<linearGradient id="paint62_linear_2725_224" x1="22" y1="60" x2="22" y2="64" gradientUnits="userSpaceOnUse">
<stop stop-color="#0BB590"/>
<stop offset="0.0001" stop-color="#4801A1"/>
<stop offset="0.9669" stop-color="#00D7D7"/>
</linearGradient>
<linearGradient id="paint63_linear_2725_224" x1="32" y1="60" x2="32" y2="64" gradientUnits="userSpaceOnUse">
<stop stop-color="#0BB590"/>
<stop offset="0.0001" stop-color="#4801A1"/>
<stop offset="0.9669" stop-color="#00D7D7"/>
</linearGradient>
<linearGradient id="paint64_linear_2725_224" x1="42" y1="60" x2="42" y2="64" gradientUnits="userSpaceOnUse">
<stop stop-color="#0BB590"/>
<stop offset="0.0001" stop-color="#4801A1"/>
<stop offset="0.9669" stop-color="#00D7D7"/>
</linearGradient>
<linearGradient id="paint65_linear_2725_224" x1="52" y1="60" x2="52" y2="64" gradientUnits="userSpaceOnUse">
<stop stop-color="#0BB590"/>
<stop offset="0.0001" stop-color="#4801A1"/>
<stop offset="0.9669" stop-color="#00D7D7"/>
</linearGradient>
<linearGradient id="paint66_linear_2725_224" x1="62" y1="60" x2="62" y2="64" gradientUnits="userSpaceOnUse">
<stop stop-color="#0BB590"/>
<stop offset="0.0001" stop-color="#4801A1"/>
<stop offset="0.9669" stop-color="#00D7D7"/>
</linearGradient>
<linearGradient id="paint67_linear_2725_224" x1="72" y1="60" x2="72" y2="64" gradientUnits="userSpaceOnUse">
<stop stop-color="#0BB590"/>
<stop offset="0.0001" stop-color="#4801A1"/>
<stop offset="0.9669" stop-color="#00D7D7"/>
</linearGradient>
<linearGradient id="paint68_linear_2725_224" x1="82" y1="60" x2="82" y2="64" gradientUnits="userSpaceOnUse">
<stop stop-color="#0BB590"/>
<stop offset="0.0001" stop-color="#4801A1"/>
<stop offset="0.9669" stop-color="#00D7D7"/>
</linearGradient>
<linearGradient id="paint69_linear_2725_224" x1="92" y1="60" x2="92" y2="64" gradientUnits="userSpaceOnUse">
<stop stop-color="#0BB590"/>
<stop offset="0.0001" stop-color="#4801A1"/>
<stop offset="0.9669" stop-color="#00D7D7"/>
</linearGradient>
<linearGradient id="paint70_linear_2725_224" x1="2" y1="70" x2="2" y2="74" gradientUnits="userSpaceOnUse">
<stop stop-color="#0BB590"/>
<stop offset="0.0001" stop-color="#4801A1"/>
<stop offset="0.9669" stop-color="#00D7D7"/>
</linearGradient>
<linearGradient id="paint71_linear_2725_224" x1="12" y1="70" x2="12" y2="74" gradientUnits="userSpaceOnUse">
<stop stop-color="#0BB590"/>
<stop offset="0.0001" stop-color="#4801A1"/>
<stop offset="0.9669" stop-color="#00D7D7"/>
</linearGradient>
<linearGradient id="paint72_linear_2725_224" x1="22" y1="70" x2="22" y2="74" gradientUnits="userSpaceOnUse">
<stop stop-color="#0BB590"/>
<stop offset="0.0001" stop-color="#4801A1"/>
<stop offset="0.9669" stop-color="#00D7D7"/>
</linearGradient>
<linearGradient id="paint73_linear_2725_224" x1="32" y1="70" x2="32" y2="74" gradientUnits="userSpaceOnUse">
<stop stop-color="#0BB590"/>
<stop offset="0.0001" stop-color="#4801A1"/>
<stop offset="0.9669" stop-color="#00D7D7"/>
</linearGradient>
<linearGradient id="paint74_linear_2725_224" x1="42" y1="70" x2="42" y2="74" gradientUnits="userSpaceOnUse">
<stop stop-color="#0BB590"/>
<stop offset="0.0001" stop-color="#4801A1"/>
<stop offset="0.9669" stop-color="#00D7D7"/>
</linearGradient>
<linearGradient id="paint75_linear_2725_224" x1="52" y1="70" x2="52" y2="74" gradientUnits="userSpaceOnUse">
<stop stop-color="#0BB590"/>
<stop offset="0.0001" stop-color="#4801A1"/>
<stop offset="0.9669" stop-color="#00D7D7"/>
</linearGradient>
<linearGradient id="paint76_linear_2725_224" x1="62" y1="70" x2="62" y2="74" gradientUnits="userSpaceOnUse">
<stop stop-color="#0BB590"/>
<stop offset="0.0001" stop-color="#4801A1"/>
<stop offset="0.9669" stop-color="#00D7D7"/>
</linearGradient>
<linearGradient id="paint77_linear_2725_224" x1="72" y1="70" x2="72" y2="74" gradientUnits="userSpaceOnUse">
<stop stop-color="#0BB590"/>
<stop offset="0.0001" stop-color="#4801A1"/>
<stop offset="0.9669" stop-color="#00D7D7"/>
</linearGradient>
<linearGradient id="paint78_linear_2725_224" x1="82" y1="70" x2="82" y2="74" gradientUnits="userSpaceOnUse">
<stop stop-color="#0BB590"/>
<stop offset="0.0001" stop-color="#4801A1"/>
<stop offset="0.9669" stop-color="#00D7D7"/>
</linearGradient>
<linearGradient id="paint79_linear_2725_224" x1="92" y1="70" x2="92" y2="74" gradientUnits="userSpaceOnUse">
<stop stop-color="#0BB590"/>
<stop offset="0.0001" stop-color="#4801A1"/>
<stop offset="0.9669" stop-color="#00D7D7"/>
</linearGradient>
<linearGradient id="paint80_linear_2725_224" x1="2" y1="80" x2="2" y2="84" gradientUnits="userSpaceOnUse">
<stop stop-color="#0BB590"/>
<stop offset="0.0001" stop-color="#4801A1"/>
<stop offset="0.9669" stop-color="#00D7D7"/>
</linearGradient>
<linearGradient id="paint81_linear_2725_224" x1="12" y1="80" x2="12" y2="84" gradientUnits="userSpaceOnUse">
<stop stop-color="#0BB590"/>
<stop offset="0.0001" stop-color="#4801A1"/>
<stop offset="0.9669" stop-color="#00D7D7"/>
</linearGradient>
<linearGradient id="paint82_linear_2725_224" x1="22" y1="80" x2="22" y2="84" gradientUnits="userSpaceOnUse">
<stop stop-color="#0BB590"/>
<stop offset="0.0001" stop-color="#4801A1"/>
<stop offset="0.9669" stop-color="#00D7D7"/>
</linearGradient>
<linearGradient id="paint83_linear_2725_224" x1="32" y1="80" x2="32" y2="84" gradientUnits="userSpaceOnUse">
<stop stop-color="#0BB590"/>
<stop offset="0.0001" stop-color="#4801A1"/>
<stop offset="0.9669" stop-color="#00D7D7"/>
</linearGradient>
<linearGradient id="paint84_linear_2725_224" x1="42" y1="80" x2="42" y2="84" gradientUnits="userSpaceOnUse">
<stop stop-color="#0BB590"/>
<stop offset="0.0001" stop-color="#4801A1"/>
<stop offset="0.9669" stop-color="#00D7D7"/>
</linearGradient>
<linearGradient id="paint85_linear_2725_224" x1="52" y1="80" x2="52" y2="84" gradientUnits="userSpaceOnUse">
<stop stop-color="#0BB590"/>
<stop offset="0.0001" stop-color="#4801A1"/>
<stop offset="0.9669" stop-color="#00D7D7"/>
</linearGradient>
<linearGradient id="paint86_linear_2725_224" x1="62" y1="80" x2="62" y2="84" gradientUnits="userSpaceOnUse">
<stop stop-color="#0BB590"/>
<stop offset="0.0001" stop-color="#4801A1"/>
<stop offset="0.9669" stop-color="#00D7D7"/>
</linearGradient>
<linearGradient id="paint87_linear_2725_224" x1="72" y1="80" x2="72" y2="84" gradientUnits="userSpaceOnUse">
<stop stop-color="#0BB590"/>
<stop offset="0.0001" stop-color="#4801A1"/>
<stop offset="0.9669" stop-color="#00D7D7"/>
</linearGradient>
<linearGradient id="paint88_linear_2725_224" x1="82" y1="80" x2="82" y2="84" gradientUnits="userSpaceOnUse">
<stop stop-color="#0BB590"/>
<stop offset="0.0001" stop-color="#4801A1"/>
<stop offset="0.9669" stop-color="#00D7D7"/>
</linearGradient>
<linearGradient id="paint89_linear_2725_224" x1="92" y1="80" x2="92" y2="84" gradientUnits="userSpaceOnUse">
<stop stop-color="#0BB590"/>
<stop offset="0.0001" stop-color="#4801A1"/>
<stop offset="0.9669" stop-color="#00D7D7"/>
</linearGradient>
<linearGradient id="paint90_linear_2725_224" x1="2" y1="90" x2="2" y2="94" gradientUnits="userSpaceOnUse">
<stop stop-color="#0BB590"/>
<stop offset="0.0001" stop-color="#4801A1"/>
<stop offset="0.9669" stop-color="#00D7D7"/>
</linearGradient>
<linearGradient id="paint91_linear_2725_224" x1="12" y1="90" x2="12" y2="94" gradientUnits="userSpaceOnUse">
<stop stop-color="#0BB590"/>
<stop offset="0.0001" stop-color="#4801A1"/>
<stop offset="0.9669" stop-color="#00D7D7"/>
</linearGradient>
<linearGradient id="paint92_linear_2725_224" x1="22" y1="90" x2="22" y2="94" gradientUnits="userSpaceOnUse">
<stop stop-color="#0BB590"/>
<stop offset="0.0001" stop-color="#4801A1"/>
<stop offset="0.9669" stop-color="#00D7D7"/>
</linearGradient>
<linearGradient id="paint93_linear_2725_224" x1="32" y1="90" x2="32" y2="94" gradientUnits="userSpaceOnUse">
<stop stop-color="#0BB590"/>
<stop offset="0.0001" stop-color="#4801A1"/>
<stop offset="0.9669" stop-color="#00D7D7"/>
</linearGradient>
<linearGradient id="paint94_linear_2725_224" x1="42" y1="90" x2="42" y2="94" gradientUnits="userSpaceOnUse">
<stop stop-color="#0BB590"/>
<stop offset="0.0001" stop-color="#4801A1"/>
<stop offset="0.9669" stop-color="#00D7D7"/>
</linearGradient>
<linearGradient id="paint95_linear_2725_224" x1="52" y1="90" x2="52" y2="94" gradientUnits="userSpaceOnUse">
<stop stop-color="#0BB590"/>
<stop offset="0.0001" stop-color="#4801A1"/>
<stop offset="0.9669" stop-color="#00D7D7"/>
</linearGradient>
<linearGradient id="paint96_linear_2725_224" x1="62" y1="90" x2="62" y2="94" gradientUnits="userSpaceOnUse">
<stop stop-color="#0BB590"/>
<stop offset="0.0001" stop-color="#4801A1"/>
<stop offset="0.9669" stop-color="#00D7D7"/>
</linearGradient>
<linearGradient id="paint97_linear_2725_224" x1="72" y1="90" x2="72" y2="94" gradientUnits="userSpaceOnUse">
<stop stop-color="#0BB590"/>
<stop offset="0.0001" stop-color="#4801A1"/>
<stop offset="0.9669" stop-color="#00D7D7"/>
</linearGradient>
<linearGradient id="paint98_linear_2725_224" x1="82" y1="90" x2="82" y2="94" gradientUnits="userSpaceOnUse">
<stop stop-color="#0BB590"/>
<stop offset="0.0001" stop-color="#4801A1"/>
<stop offset="0.9669" stop-color="#00D7D7"/>
</linearGradient>
<linearGradient id="paint99_linear_2725_224" x1="92" y1="90" x2="92" y2="94" gradientUnits="userSpaceOnUse">
<stop stop-color="#0BB590"/>
<stop offset="0.0001" stop-color="#4801A1"/>
<stop offset="0.9669" stop-color="#00D7D7"/>
</linearGradient>
</defs>
</svg>
