<svg xmlns="http://www.w3.org/2000/svg" width="100" height="100" viewBox="0 0 100 100" fill="none"><circle cx="2" cy="2" r="2" fill="#FB0D06"></circle><circle cx="12" cy="2" r="2" fill="#FB0D06"></circle><circle cx="22" cy="2" r="2" fill="#FB0D06"></circle><circle cx="32" cy="2" r="2" fill="#FB0D06"></circle><circle cx="42" cy="2" r="2" fill="#FB0D06"></circle><circle cx="52" cy="2" r="2" fill="#FB0D06"></circle><circle cx="62" cy="2" r="2" fill="#FB0D06"></circle><circle cx="72" cy="2" r="2" fill="#FB0D06"></circle><circle cx="82" cy="2" r="2" fill="#FB0D06"></circle><circle cx="92" cy="2" r="2" fill="#FB0D06"></circle><circle cx="2" cy="12" r="2" fill="#FB0D06"></circle><circle cx="12" cy="12" r="2" fill="#FB0D06"></circle><circle cx="22" cy="12" r="2" fill="#FB0D06"></circle><circle cx="32" cy="12" r="2" fill="#FB0D06"></circle><circle cx="42" cy="12" r="2" fill="#FB0D06"></circle><circle cx="52" cy="12" r="2" fill="#FB0D06"></circle><circle cx="62" cy="12" r="2" fill="#FB0D06"></circle><circle cx="72" cy="12" r="2" fill="#FB0D06"></circle><circle cx="82" cy="12" r="2" fill="#FB0D06"></circle><circle cx="92" cy="12" r="2" fill="#FB0D06"></circle><circle cx="2" cy="22" r="2" fill="#FB0D06"></circle><circle cx="12" cy="22" r="2" fill="#FB0D06"></circle><circle cx="22" cy="22" r="2" fill="#FB0D06"></circle><circle cx="32" cy="22" r="2" fill="#FB0D06"></circle><circle cx="42" cy="22" r="2" fill="#FB0D06"></circle><circle cx="52" cy="22" r="2" fill="#FB0D06"></circle><circle cx="62" cy="22" r="2" fill="#FB0D06"></circle><circle cx="72" cy="22" r="2" fill="#FB0D06"></circle><circle cx="82" cy="22" r="2" fill="#FB0D06"></circle><circle cx="92" cy="22" r="2" fill="#FB0D06"></circle><circle cx="2" cy="32" r="2" fill="#FB0D06"></circle><circle cx="12" cy="32" r="2" fill="#FB0D06"></circle><circle cx="22" cy="32" r="2" fill="#FB0D06"></circle><circle cx="32" cy="32" r="2" fill="#FB0D06"></circle><circle cx="42" cy="32" r="2" fill="#FB0D06"></circle><circle cx="52" cy="32" r="2" fill="#FB0D06"></circle><circle cx="62" cy="32" r="2" fill="#FB0D06"></circle><circle cx="72" cy="32" r="2" fill="#FB0D06"></circle><circle cx="82" cy="32" r="2" fill="#FB0D06"></circle><circle cx="92" cy="32" r="2" fill="#FB0D06"></circle><circle cx="2" cy="42" r="2" fill="#FB0D06"></circle><circle cx="12" cy="42" r="2" fill="#FB0D06"></circle><circle cx="22" cy="42" r="2" fill="#FB0D06"></circle><circle cx="32" cy="42" r="2" fill="#FB0D06"></circle><circle cx="42" cy="42" r="2" fill="#FB0D06"></circle><circle cx="52" cy="42" r="2" fill="#FB0D06"></circle><circle cx="62" cy="42" r="2" fill="#FB0D06"></circle><circle cx="72" cy="42" r="2" fill="#FB0D06"></circle><circle cx="82" cy="42" r="2" fill="#FB0D06"></circle><circle cx="92" cy="42" r="2" fill="#FB0D06"></circle><circle cx="2" cy="52" r="2" fill="#FB0D06"></circle><circle cx="12" cy="52" r="2" fill="#FB0D06"></circle><circle cx="22" cy="52" r="2" fill="#FB0D06"></circle><circle cx="32" cy="52" r="2" fill="#FB0D06"></circle><circle cx="42" cy="52" r="2" fill="#FB0D06"></circle><circle cx="52" cy="52" r="2" fill="#FB0D06"></circle><circle cx="62" cy="52" r="2" fill="#FB0D06"></circle><circle cx="72" cy="52" r="2" fill="#FB0D06"></circle><circle cx="82" cy="52" r="2" fill="#FB0D06"></circle><circle cx="92" cy="52" r="2" fill="#FB0D06"></circle><circle cx="2" cy="62" r="2" fill="#FB0D06"></circle><circle cx="12" cy="62" r="2" fill="#FB0D06"></circle><circle cx="22" cy="62" r="2" fill="#FB0D06"></circle><circle cx="32" cy="62" r="2" fill="#FB0D06"></circle><circle cx="42" cy="62" r="2" fill="#FB0D06"></circle><circle cx="52" cy="62" r="2" fill="#FB0D06"></circle><circle cx="62" cy="62" r="2" fill="#FB0D06"></circle><circle cx="72" cy="62" r="2" fill="#FB0D06"></circle><circle cx="82" cy="62" r="2" fill="#FB0D06"></circle><circle cx="92" cy="62" r="2" fill="#FB0D06"></circle><circle cx="2" cy="72" r="2" fill="#FB0D06"></circle><circle cx="12" cy="72" r="2" fill="#FB0D06"></circle><circle cx="22" cy="72" r="2" fill="#FB0D06"></circle><circle cx="32" cy="72" r="2" fill="#FB0D06"></circle><circle cx="42" cy="72" r="2" fill="#FB0D06"></circle><circle cx="52" cy="72" r="2" fill="#FB0D06"></circle><circle cx="62" cy="72" r="2" fill="#FB0D06"></circle><circle cx="72" cy="72" r="2" fill="#FB0D06"></circle><circle cx="82" cy="72" r="2" fill="#FB0D06"></circle><circle cx="92" cy="72" r="2" fill="#FB0D06"></circle><circle cx="2" cy="82" r="2" fill="#FB0D06"></circle><circle cx="12" cy="82" r="2" fill="#FB0D06"></circle><circle cx="22" cy="82" r="2" fill="#FB0D06"></circle><circle cx="32" cy="82" r="2" fill="#FB0D06"></circle><circle cx="42" cy="82" r="2" fill="#FB0D06"></circle><circle cx="52" cy="82" r="2" fill="#FB0D06"></circle><circle cx="62" cy="82" r="2" fill="#FB0D06"></circle><circle cx="72" cy="82" r="2" fill="#FB0D06"></circle><circle cx="82" cy="82" r="2" fill="#FB0D06"></circle><circle cx="92" cy="82" r="2" fill="#FB0D06"></circle><circle cx="2" cy="92" r="2" fill="#FB0D06"></circle><circle cx="12" cy="92" r="2" fill="#FB0D06"></circle><circle cx="22" cy="92" r="2" fill="#FB0D06"></circle><circle cx="32" cy="92" r="2" fill="#FB0D06"></circle><circle cx="42" cy="92" r="2" fill="#FB0D06"></circle><circle cx="52" cy="92" r="2" fill="#FB0D06"></circle><circle cx="62" cy="92" r="2" fill="#FB0D06"></circle><circle cx="72" cy="92" r="2" fill="#FB0D06"></circle><circle cx="82" cy="92" r="2" fill="#FB0D06"></circle><circle cx="92" cy="92" r="2" fill="#FB0D06"></circle></svg>