<svg width="180" height="180" viewBox="0 0 180 180" fill="none" xmlns="http://www.w3.org/2000/svg">
<g clip-path="url(#clip0_2878_325)">
<path d="M3.6 7.2C5.58822 7.2 7.2 5.58822 7.2 3.6C7.2 1.61177 5.58822 0 3.6 0C1.61177 0 0 1.61177 0 3.6C0 5.58822 1.61177 7.2 3.6 7.2Z" fill="#9FA1A4"/>
<path d="M24.0355 7.2C26.0238 7.2 27.6355 5.58822 27.6355 3.6C27.6355 1.61177 26.0238 0 24.0355 0C22.0473 0 20.4355 1.61177 20.4355 3.6C20.4355 5.58822 22.0473 7.2 24.0355 7.2Z" fill="#9FA1A4"/>
<path d="M44.4711 7.2C46.4593 7.2 48.0711 5.58822 48.0711 3.6C48.0711 1.61177 46.4593 0 44.4711 0C42.4829 0 40.8711 1.61177 40.8711 3.6C40.8711 5.58822 42.4829 7.2 44.4711 7.2Z" fill="#9FA1A4"/>
<path d="M64.9047 7.2C66.8929 7.2 68.5047 5.58822 68.5047 3.6C68.5047 1.61177 66.8929 0 64.9047 0C62.9165 0 61.3047 1.61177 61.3047 3.6C61.3047 5.58822 62.9165 7.2 64.9047 7.2Z" fill="#9FA1A4"/>
<path d="M85.3402 7.2C87.3285 7.2 88.9402 5.58822 88.9402 3.6C88.9402 1.61177 87.3285 0 85.3402 0C83.352 0 81.7402 1.61177 81.7402 3.6C81.7402 5.58822 83.352 7.2 85.3402 7.2Z" fill="#9FA1A4"/>
<path d="M105.776 7.2C107.764 7.2 109.376 5.58822 109.376 3.6C109.376 1.61177 107.764 0 105.776 0C103.788 0 102.176 1.61177 102.176 3.6C102.176 5.58822 103.788 7.2 105.776 7.2Z" fill="#9FA1A4"/>
<path d="M126.211 7.2C128.2 7.2 129.811 5.58822 129.811 3.6C129.811 1.61177 128.2 0 126.211 0C124.223 0 122.611 1.61177 122.611 3.6C122.611 5.58822 124.223 7.2 126.211 7.2Z" fill="#9FA1A4"/>
<path d="M146.647 7.2C148.635 7.2 150.247 5.58822 150.247 3.6C150.247 1.61177 148.635 0 146.647 0C144.659 0 143.047 1.61177 143.047 3.6C143.047 5.58822 144.659 7.2 146.647 7.2Z" fill="#9FA1A4"/>
<path d="M167.082 7.2C169.071 7.2 170.682 5.58822 170.682 3.6C170.682 1.61177 169.071 0 167.082 0C165.094 0 163.482 1.61177 163.482 3.6C163.482 5.58822 165.094 7.2 167.082 7.2Z" fill="#9FA1A4"/>
<path d="M3.6 27.6351C5.58822 27.6351 7.2 26.0233 7.2 24.0351C7.2 22.0468 5.58822 20.4351 3.6 20.4351C1.61177 20.4351 0 22.0468 0 24.0351C0 26.0233 1.61177 27.6351 3.6 27.6351Z" fill="#9FA1A4"/>
<path d="M24.0355 27.6351C26.0238 27.6351 27.6355 26.0233 27.6355 24.0351C27.6355 22.0468 26.0238 20.4351 24.0355 20.4351C22.0473 20.4351 20.4355 22.0468 20.4355 24.0351C20.4355 26.0233 22.0473 27.6351 24.0355 27.6351Z" fill="#9FA1A4"/>
<path d="M44.4711 27.6351C46.4593 27.6351 48.0711 26.0233 48.0711 24.0351C48.0711 22.0468 46.4593 20.4351 44.4711 20.4351C42.4829 20.4351 40.8711 22.0468 40.8711 24.0351C40.8711 26.0233 42.4829 27.6351 44.4711 27.6351Z" fill="#9FA1A4"/>
<path d="M64.9047 27.6351C66.8929 27.6351 68.5047 26.0233 68.5047 24.0351C68.5047 22.0468 66.8929 20.4351 64.9047 20.4351C62.9165 20.4351 61.3047 22.0468 61.3047 24.0351C61.3047 26.0233 62.9165 27.6351 64.9047 27.6351Z" fill="#9FA1A4"/>
<path d="M85.3402 27.6351C87.3285 27.6351 88.9402 26.0233 88.9402 24.0351C88.9402 22.0468 87.3285 20.4351 85.3402 20.4351C83.352 20.4351 81.7402 22.0468 81.7402 24.0351C81.7402 26.0233 83.352 27.6351 85.3402 27.6351Z" fill="#9FA1A4"/>
<path d="M105.776 27.6351C107.764 27.6351 109.376 26.0233 109.376 24.0351C109.376 22.0468 107.764 20.4351 105.776 20.4351C103.788 20.4351 102.176 22.0468 102.176 24.0351C102.176 26.0233 103.788 27.6351 105.776 27.6351Z" fill="#9FA1A4"/>
<path d="M126.211 27.6351C128.2 27.6351 129.811 26.0233 129.811 24.0351C129.811 22.0468 128.2 20.4351 126.211 20.4351C124.223 20.4351 122.611 22.0468 122.611 24.0351C122.611 26.0233 124.223 27.6351 126.211 27.6351Z" fill="#9FA1A4"/>
<path d="M146.647 27.6351C148.635 27.6351 150.247 26.0233 150.247 24.0351C150.247 22.0468 148.635 20.4351 146.647 20.4351C144.659 20.4351 143.047 22.0468 143.047 24.0351C143.047 26.0233 144.659 27.6351 146.647 27.6351Z" fill="#9FA1A4"/>
<path d="M167.082 27.6351C169.071 27.6351 170.682 26.0233 170.682 24.0351C170.682 22.0468 169.071 20.4351 167.082 20.4351C165.094 20.4351 163.482 22.0468 163.482 24.0351C163.482 26.0233 165.094 27.6351 167.082 27.6351Z" fill="#9FA1A4"/>
<path d="M3.6 48.0706C5.58822 48.0706 7.2 46.4588 7.2 44.4706C7.2 42.4824 5.58822 40.8706 3.6 40.8706C1.61177 40.8706 0 42.4824 0 44.4706C0 46.4588 1.61177 48.0706 3.6 48.0706Z" fill="#9FA1A4"/>
<path d="M24.0355 48.0706C26.0238 48.0706 27.6355 46.4588 27.6355 44.4706C27.6355 42.4824 26.0238 40.8706 24.0355 40.8706C22.0473 40.8706 20.4355 42.4824 20.4355 44.4706C20.4355 46.4588 22.0473 48.0706 24.0355 48.0706Z" fill="#9FA1A4"/>
<path d="M44.4711 48.0706C46.4593 48.0706 48.0711 46.4588 48.0711 44.4706C48.0711 42.4824 46.4593 40.8706 44.4711 40.8706C42.4829 40.8706 40.8711 42.4824 40.8711 44.4706C40.8711 46.4588 42.4829 48.0706 44.4711 48.0706Z" fill="#9FA1A4"/>
<path d="M64.9047 48.0706C66.8929 48.0706 68.5047 46.4588 68.5047 44.4706C68.5047 42.4824 66.8929 40.8706 64.9047 40.8706C62.9165 40.8706 61.3047 42.4824 61.3047 44.4706C61.3047 46.4588 62.9165 48.0706 64.9047 48.0706Z" fill="#9FA1A4"/>
<path d="M85.3402 48.0706C87.3285 48.0706 88.9402 46.4588 88.9402 44.4706C88.9402 42.4824 87.3285 40.8706 85.3402 40.8706C83.352 40.8706 81.7402 42.4824 81.7402 44.4706C81.7402 46.4588 83.352 48.0706 85.3402 48.0706Z" fill="#9FA1A4"/>
<path d="M105.776 48.0706C107.764 48.0706 109.376 46.4588 109.376 44.4706C109.376 42.4824 107.764 40.8706 105.776 40.8706C103.788 40.8706 102.176 42.4824 102.176 44.4706C102.176 46.4588 103.788 48.0706 105.776 48.0706Z" fill="#9FA1A4"/>
<path d="M126.211 48.0706C128.2 48.0706 129.811 46.4588 129.811 44.4706C129.811 42.4824 128.2 40.8706 126.211 40.8706C124.223 40.8706 122.611 42.4824 122.611 44.4706C122.611 46.4588 124.223 48.0706 126.211 48.0706Z" fill="#9FA1A4"/>
<path d="M146.647 48.0706C148.635 48.0706 150.247 46.4588 150.247 44.4706C150.247 42.4824 148.635 40.8706 146.647 40.8706C144.659 40.8706 143.047 42.4824 143.047 44.4706C143.047 46.4588 144.659 48.0706 146.647 48.0706Z" fill="#9FA1A4"/>
<path d="M167.082 48.0706C169.071 48.0706 170.682 46.4588 170.682 44.4706C170.682 42.4824 169.071 40.8706 167.082 40.8706C165.094 40.8706 163.482 42.4824 163.482 44.4706C163.482 46.4588 165.094 48.0706 167.082 48.0706Z" fill="#9FA1A4"/>
<path d="M3.6 68.5057C5.58822 68.5057 7.2 66.8939 7.2 64.9057C7.2 62.9174 5.58822 61.3057 3.6 61.3057C1.61177 61.3057 0 62.9174 0 64.9057C0 66.8939 1.61177 68.5057 3.6 68.5057Z" fill="#9FA1A4"/>
<path d="M24.0355 68.5057C26.0238 68.5057 27.6355 66.8939 27.6355 64.9057C27.6355 62.9174 26.0238 61.3057 24.0355 61.3057C22.0473 61.3057 20.4355 62.9174 20.4355 64.9057C20.4355 66.8939 22.0473 68.5057 24.0355 68.5057Z" fill="#9FA1A4"/>
<path d="M44.4711 68.5057C46.4593 68.5057 48.0711 66.8939 48.0711 64.9057C48.0711 62.9174 46.4593 61.3057 44.4711 61.3057C42.4829 61.3057 40.8711 62.9174 40.8711 64.9057C40.8711 66.8939 42.4829 68.5057 44.4711 68.5057Z" fill="#9FA1A4"/>
<path d="M64.9047 68.5057C66.8929 68.5057 68.5047 66.8939 68.5047 64.9057C68.5047 62.9174 66.8929 61.3057 64.9047 61.3057C62.9165 61.3057 61.3047 62.9174 61.3047 64.9057C61.3047 66.8939 62.9165 68.5057 64.9047 68.5057Z" fill="#9FA1A4"/>
<path d="M85.3402 68.5057C87.3285 68.5057 88.9402 66.8939 88.9402 64.9057C88.9402 62.9174 87.3285 61.3057 85.3402 61.3057C83.352 61.3057 81.7402 62.9174 81.7402 64.9057C81.7402 66.8939 83.352 68.5057 85.3402 68.5057Z" fill="#9FA1A4"/>
<path d="M105.776 68.5057C107.764 68.5057 109.376 66.8939 109.376 64.9057C109.376 62.9174 107.764 61.3057 105.776 61.3057C103.788 61.3057 102.176 62.9174 102.176 64.9057C102.176 66.8939 103.788 68.5057 105.776 68.5057Z" fill="#9FA1A4"/>
<path d="M126.211 68.5057C128.2 68.5057 129.811 66.8939 129.811 64.9057C129.811 62.9174 128.2 61.3057 126.211 61.3057C124.223 61.3057 122.611 62.9174 122.611 64.9057C122.611 66.8939 124.223 68.5057 126.211 68.5057Z" fill="#9FA1A4"/>
<path d="M146.647 68.5057C148.635 68.5057 150.247 66.8939 150.247 64.9057C150.247 62.9174 148.635 61.3057 146.647 61.3057C144.659 61.3057 143.047 62.9174 143.047 64.9057C143.047 66.8939 144.659 68.5057 146.647 68.5057Z" fill="#9FA1A4"/>
<path d="M167.082 68.5057C169.071 68.5057 170.682 66.8939 170.682 64.9057C170.682 62.9174 169.071 61.3057 167.082 61.3057C165.094 61.3057 163.482 62.9174 163.482 64.9057C163.482 66.8939 165.094 68.5057 167.082 68.5057Z" fill="#9FA1A4"/>
<path d="M3.6 88.9407C5.58822 88.9407 7.2 87.3289 7.2 85.3407C7.2 83.3525 5.58822 81.7407 3.6 81.7407C1.61177 81.7407 0 83.3525 0 85.3407C0 87.3289 1.61177 88.9407 3.6 88.9407Z" fill="#9FA1A4"/>
<path d="M24.0355 88.9407C26.0238 88.9407 27.6355 87.3289 27.6355 85.3407C27.6355 83.3525 26.0238 81.7407 24.0355 81.7407C22.0473 81.7407 20.4355 83.3525 20.4355 85.3407C20.4355 87.3289 22.0473 88.9407 24.0355 88.9407Z" fill="#9FA1A4"/>
<path d="M44.4711 88.9407C46.4593 88.9407 48.0711 87.3289 48.0711 85.3407C48.0711 83.3525 46.4593 81.7407 44.4711 81.7407C42.4829 81.7407 40.8711 83.3525 40.8711 85.3407C40.8711 87.3289 42.4829 88.9407 44.4711 88.9407Z" fill="#9FA1A4"/>
<path d="M64.9047 88.9407C66.8929 88.9407 68.5047 87.3289 68.5047 85.3407C68.5047 83.3525 66.8929 81.7407 64.9047 81.7407C62.9165 81.7407 61.3047 83.3525 61.3047 85.3407C61.3047 87.3289 62.9165 88.9407 64.9047 88.9407Z" fill="#9FA1A4"/>
<path d="M85.3402 88.9407C87.3285 88.9407 88.9402 87.3289 88.9402 85.3407C88.9402 83.3525 87.3285 81.7407 85.3402 81.7407C83.352 81.7407 81.7402 83.3525 81.7402 85.3407C81.7402 87.3289 83.352 88.9407 85.3402 88.9407Z" fill="#9FA1A4"/>
<path d="M105.776 88.9407C107.764 88.9407 109.376 87.3289 109.376 85.3407C109.376 83.3525 107.764 81.7407 105.776 81.7407C103.788 81.7407 102.176 83.3525 102.176 85.3407C102.176 87.3289 103.788 88.9407 105.776 88.9407Z" fill="#9FA1A4"/>
<path d="M126.211 88.9407C128.2 88.9407 129.811 87.3289 129.811 85.3407C129.811 83.3525 128.2 81.7407 126.211 81.7407C124.223 81.7407 122.611 83.3525 122.611 85.3407C122.611 87.3289 124.223 88.9407 126.211 88.9407Z" fill="#9FA1A4"/>
<path d="M146.647 88.9407C148.635 88.9407 150.247 87.3289 150.247 85.3407C150.247 83.3525 148.635 81.7407 146.647 81.7407C144.659 81.7407 143.047 83.3525 143.047 85.3407C143.047 87.3289 144.659 88.9407 146.647 88.9407Z" fill="#9FA1A4"/>
<path d="M167.082 88.9407C169.071 88.9407 170.682 87.3289 170.682 85.3407C170.682 83.3525 169.071 81.7407 167.082 81.7407C165.094 81.7407 163.482 83.3525 163.482 85.3407C163.482 87.3289 165.094 88.9407 167.082 88.9407Z" fill="#9FA1A4"/>
<path d="M3.6 109.376C5.58822 109.376 7.2 107.764 7.2 105.776C7.2 103.788 5.58822 102.176 3.6 102.176C1.61177 102.176 0 103.788 0 105.776C0 107.764 1.61177 109.376 3.6 109.376Z" fill="#9FA1A4"/>
<path d="M24.0355 109.376C26.0238 109.376 27.6355 107.764 27.6355 105.776C27.6355 103.788 26.0238 102.176 24.0355 102.176C22.0473 102.176 20.4355 103.788 20.4355 105.776C20.4355 107.764 22.0473 109.376 24.0355 109.376Z" fill="#9FA1A4"/>
<path d="M44.4711 109.376C46.4593 109.376 48.0711 107.764 48.0711 105.776C48.0711 103.788 46.4593 102.176 44.4711 102.176C42.4829 102.176 40.8711 103.788 40.8711 105.776C40.8711 107.764 42.4829 109.376 44.4711 109.376Z" fill="#9FA1A4"/>
<path d="M64.9047 109.376C66.8929 109.376 68.5047 107.764 68.5047 105.776C68.5047 103.788 66.8929 102.176 64.9047 102.176C62.9165 102.176 61.3047 103.788 61.3047 105.776C61.3047 107.764 62.9165 109.376 64.9047 109.376Z" fill="#9FA1A4"/>
<path d="M85.3402 109.376C87.3285 109.376 88.9402 107.764 88.9402 105.776C88.9402 103.788 87.3285 102.176 85.3402 102.176C83.352 102.176 81.7402 103.788 81.7402 105.776C81.7402 107.764 83.352 109.376 85.3402 109.376Z" fill="#9FA1A4"/>
<path d="M105.776 109.376C107.764 109.376 109.376 107.764 109.376 105.776C109.376 103.788 107.764 102.176 105.776 102.176C103.788 102.176 102.176 103.788 102.176 105.776C102.176 107.764 103.788 109.376 105.776 109.376Z" fill="#9FA1A4"/>
<path d="M126.211 109.376C128.2 109.376 129.811 107.764 129.811 105.776C129.811 103.788 128.2 102.176 126.211 102.176C124.223 102.176 122.611 103.788 122.611 105.776C122.611 107.764 124.223 109.376 126.211 109.376Z" fill="#9FA1A4"/>
<path d="M146.647 109.376C148.635 109.376 150.247 107.764 150.247 105.776C150.247 103.788 148.635 102.176 146.647 102.176C144.659 102.176 143.047 103.788 143.047 105.776C143.047 107.764 144.659 109.376 146.647 109.376Z" fill="#9FA1A4"/>
<path d="M167.082 109.376C169.071 109.376 170.682 107.764 170.682 105.776C170.682 103.788 169.071 102.176 167.082 102.176C165.094 102.176 163.482 103.788 163.482 105.776C163.482 107.764 165.094 109.376 167.082 109.376Z" fill="#9FA1A4"/>
<path d="M3.6 129.811C5.58822 129.811 7.2 128.2 7.2 126.211C7.2 124.223 5.58822 122.611 3.6 122.611C1.61177 122.611 0 124.223 0 126.211C0 128.2 1.61177 129.811 3.6 129.811Z" fill="#9FA1A4"/>
<path d="M24.0355 129.811C26.0238 129.811 27.6355 128.2 27.6355 126.211C27.6355 124.223 26.0238 122.611 24.0355 122.611C22.0473 122.611 20.4355 124.223 20.4355 126.211C20.4355 128.2 22.0473 129.811 24.0355 129.811Z" fill="#9FA1A4"/>
<path d="M44.4711 129.811C46.4593 129.811 48.0711 128.2 48.0711 126.211C48.0711 124.223 46.4593 122.611 44.4711 122.611C42.4829 122.611 40.8711 124.223 40.8711 126.211C40.8711 128.2 42.4829 129.811 44.4711 129.811Z" fill="#9FA1A4"/>
<path d="M64.9047 129.811C66.8929 129.811 68.5047 128.2 68.5047 126.211C68.5047 124.223 66.8929 122.611 64.9047 122.611C62.9165 122.611 61.3047 124.223 61.3047 126.211C61.3047 128.2 62.9165 129.811 64.9047 129.811Z" fill="#9FA1A4"/>
<path d="M85.3402 129.811C87.3285 129.811 88.9402 128.2 88.9402 126.211C88.9402 124.223 87.3285 122.611 85.3402 122.611C83.352 122.611 81.7402 124.223 81.7402 126.211C81.7402 128.2 83.352 129.811 85.3402 129.811Z" fill="#9FA1A4"/>
<path d="M105.776 129.811C107.764 129.811 109.376 128.2 109.376 126.211C109.376 124.223 107.764 122.611 105.776 122.611C103.788 122.611 102.176 124.223 102.176 126.211C102.176 128.2 103.788 129.811 105.776 129.811Z" fill="#9FA1A4"/>
<path d="M126.211 129.811C128.2 129.811 129.811 128.2 129.811 126.211C129.811 124.223 128.2 122.611 126.211 122.611C124.223 122.611 122.611 124.223 122.611 126.211C122.611 128.2 124.223 129.811 126.211 129.811Z" fill="#9FA1A4"/>
<path d="M146.647 129.811C148.635 129.811 150.247 128.2 150.247 126.211C150.247 124.223 148.635 122.611 146.647 122.611C144.659 122.611 143.047 124.223 143.047 126.211C143.047 128.2 144.659 129.811 146.647 129.811Z" fill="#9FA1A4"/>
<path d="M167.082 129.811C169.071 129.811 170.682 128.2 170.682 126.211C170.682 124.223 169.071 122.611 167.082 122.611C165.094 122.611 163.482 124.223 163.482 126.211C163.482 128.2 165.094 129.811 167.082 129.811Z" fill="#9FA1A4"/>
<path d="M3.6 150.246C5.58822 150.246 7.2 148.635 7.2 146.646C7.2 144.658 5.58822 143.046 3.6 143.046C1.61177 143.046 0 144.658 0 146.646C0 148.635 1.61177 150.246 3.6 150.246Z" fill="#9FA1A4"/>
<path d="M24.0355 150.246C26.0238 150.246 27.6355 148.635 27.6355 146.646C27.6355 144.658 26.0238 143.046 24.0355 143.046C22.0473 143.046 20.4355 144.658 20.4355 146.646C20.4355 148.635 22.0473 150.246 24.0355 150.246Z" fill="#9FA1A4"/>
<path d="M44.4711 150.246C46.4593 150.246 48.0711 148.635 48.0711 146.646C48.0711 144.658 46.4593 143.046 44.4711 143.046C42.4829 143.046 40.8711 144.658 40.8711 146.646C40.8711 148.635 42.4829 150.246 44.4711 150.246Z" fill="#9FA1A4"/>
<path d="M64.9047 150.246C66.8929 150.246 68.5047 148.635 68.5047 146.646C68.5047 144.658 66.8929 143.046 64.9047 143.046C62.9165 143.046 61.3047 144.658 61.3047 146.646C61.3047 148.635 62.9165 150.246 64.9047 150.246Z" fill="#9FA1A4"/>
<path d="M85.3402 150.246C87.3285 150.246 88.9402 148.635 88.9402 146.646C88.9402 144.658 87.3285 143.046 85.3402 143.046C83.352 143.046 81.7402 144.658 81.7402 146.646C81.7402 148.635 83.352 150.246 85.3402 150.246Z" fill="#9FA1A4"/>
<path d="M105.776 150.246C107.764 150.246 109.376 148.635 109.376 146.646C109.376 144.658 107.764 143.046 105.776 143.046C103.788 143.046 102.176 144.658 102.176 146.646C102.176 148.635 103.788 150.246 105.776 150.246Z" fill="#9FA1A4"/>
<path d="M126.211 150.246C128.2 150.246 129.811 148.635 129.811 146.646C129.811 144.658 128.2 143.046 126.211 143.046C124.223 143.046 122.611 144.658 122.611 146.646C122.611 148.635 124.223 150.246 126.211 150.246Z" fill="#9FA1A4"/>
<path d="M146.647 150.246C148.635 150.246 150.247 148.635 150.247 146.646C150.247 144.658 148.635 143.046 146.647 143.046C144.659 143.046 143.047 144.658 143.047 146.646C143.047 148.635 144.659 150.246 146.647 150.246Z" fill="#9FA1A4"/>
<path d="M167.082 150.246C169.071 150.246 170.682 148.635 170.682 146.646C170.682 144.658 169.071 143.046 167.082 143.046C165.094 143.046 163.482 144.658 163.482 146.646C163.482 148.635 165.094 150.246 167.082 150.246Z" fill="#9FA1A4"/>
<path d="M3.6 170.682C5.58822 170.682 7.2 169.07 7.2 167.082C7.2 165.094 5.58822 163.482 3.6 163.482C1.61177 163.482 0 165.094 0 167.082C0 169.07 1.61177 170.682 3.6 170.682Z" fill="#9FA1A4"/>
<path d="M24.0355 170.682C26.0238 170.682 27.6355 169.07 27.6355 167.082C27.6355 165.094 26.0238 163.482 24.0355 163.482C22.0473 163.482 20.4355 165.094 20.4355 167.082C20.4355 169.07 22.0473 170.682 24.0355 170.682Z" fill="#9FA1A4"/>
<path d="M44.4711 170.682C46.4593 170.682 48.0711 169.07 48.0711 167.082C48.0711 165.094 46.4593 163.482 44.4711 163.482C42.4829 163.482 40.8711 165.094 40.8711 167.082C40.8711 169.07 42.4829 170.682 44.4711 170.682Z" fill="#9FA1A4"/>
<path d="M64.9047 170.682C66.8929 170.682 68.5047 169.07 68.5047 167.082C68.5047 165.094 66.8929 163.482 64.9047 163.482C62.9165 163.482 61.3047 165.094 61.3047 167.082C61.3047 169.07 62.9165 170.682 64.9047 170.682Z" fill="#9FA1A4"/>
<path d="M85.3402 170.682C87.3285 170.682 88.9402 169.07 88.9402 167.082C88.9402 165.094 87.3285 163.482 85.3402 163.482C83.352 163.482 81.7402 165.094 81.7402 167.082C81.7402 169.07 83.352 170.682 85.3402 170.682Z" fill="#9FA1A4"/>
<path d="M105.776 170.682C107.764 170.682 109.376 169.07 109.376 167.082C109.376 165.094 107.764 163.482 105.776 163.482C103.788 163.482 102.176 165.094 102.176 167.082C102.176 169.07 103.788 170.682 105.776 170.682Z" fill="#9FA1A4"/>
<path d="M126.211 170.682C128.2 170.682 129.811 169.07 129.811 167.082C129.811 165.094 128.2 163.482 126.211 163.482C124.223 163.482 122.611 165.094 122.611 167.082C122.611 169.07 124.223 170.682 126.211 170.682Z" fill="#9FA1A4"/>
<path d="M146.647 170.682C148.635 170.682 150.247 169.07 150.247 167.082C150.247 165.094 148.635 163.482 146.647 163.482C144.659 163.482 143.047 165.094 143.047 167.082C143.047 169.07 144.659 170.682 146.647 170.682Z" fill="#9FA1A4"/>
<path d="M167.082 170.682C169.071 170.682 170.682 169.07 170.682 167.082C170.682 165.094 169.071 163.482 167.082 163.482C165.094 163.482 163.482 165.094 163.482 167.082C163.482 169.07 165.094 170.682 167.082 170.682Z" fill="#9FA1A4"/>
</g>
<defs>
<clipPath id="clip0_2878_325">
<rect width="180" height="180" fill="white"/>
</clipPath>
</defs>
</svg>
