<svg xmlns="http://www.w3.org/2000/svg" width="46" height="46" viewBox="0 0 46 46" fill="none"><path d="M0 4C0 1.79086 1.79086 0 4 0H42C44.2091 0 46 1.79086 46 4V42C46 44.2091 44.2091 46 42 46H4C1.79086 46 0 44.2091 0 42V4Z" fill="white"></path><path d="M24.7821 15.1822C25.3806 14.6366 25.7592 13.8534 25.7592 12.9815C25.7592 11.3378 24.4218 10 22.7777 10C21.1337 10 19.7963 11.3378 19.7963 12.9815C19.7963 13.8534 20.1749 14.6366 20.7733 15.1822C19.0062 15.523 17.6666 17.0793 17.6666 18.9444V20.6481C17.6666 20.8837 17.8574 21.0741 18.0926 21.0741H27.4629C27.698 21.0741 27.8888 20.8837 27.8888 20.6481V18.9444C27.8888 17.0793 26.5493 15.523 24.7821 15.1822ZM20.6481 12.9815C20.6481 11.8072 21.6035 10.8519 22.7777 10.8519C23.952 10.8519 24.9074 11.8072 24.9074 12.9815C24.9074 14.1558 23.952 15.1111 22.7777 15.1111C21.6035 15.1111 20.6481 14.1558 20.6481 12.9815ZM27.037 20.2222H18.5185V18.9444C18.5185 17.3008 19.8559 15.963 21.5 15.963H24.0555C25.6996 15.963 27.037 17.3008 27.037 18.9444V20.2222Z" fill="#003CAD"></path><path d="M17.1155 29.6637C17.7139 29.1181 18.0926 28.3349 18.0926 27.463C18.0926 25.8193 16.7552 24.4815 15.1111 24.4815C13.467 24.4815 12.1296 25.8193 12.1296 27.463C12.1296 28.3349 12.5083 29.1181 13.1067 29.6637C11.3395 30.0045 10 31.5608 10 33.4259V35.1297C10 35.3652 10.1908 35.5556 10.4259 35.5556H19.7963C20.0314 35.5556 20.2222 35.3652 20.2222 35.1297V33.4259C20.2222 31.5608 18.8827 30.0045 17.1155 29.6637ZM12.9815 27.463C12.9815 26.2887 13.9368 25.3334 15.1111 25.3334C16.2854 25.3334 17.2407 26.2887 17.2407 27.463C17.2407 28.6373 16.2854 29.5926 15.1111 29.5926C13.9368 29.5926 12.9815 28.6373 12.9815 27.463ZM19.3704 34.7037H10.8519V33.4259C10.8519 31.7823 12.1893 30.4445 13.8333 30.4445H16.3889C18.033 30.4445 19.3704 31.7823 19.3704 33.4259V34.7037Z" fill="#003CAD"></path><path d="M32.4489 29.6637C33.0473 29.1181 33.426 28.3349 33.426 27.463C33.426 25.8193 32.0886 24.4815 30.4445 24.4815C28.8004 24.4815 27.463 25.8193 27.463 27.463C27.463 28.3349 27.8417 29.1181 28.4401 29.6637C26.6729 30.0045 25.3334 31.5608 25.3334 33.4259V35.1297C25.3334 35.3652 25.5242 35.5556 25.7593 35.5556H35.1297C35.3648 35.5556 35.5556 35.3652 35.5556 35.1297V33.4259C35.5556 31.5608 34.2161 30.0045 32.4489 29.6637ZM28.3149 27.463C28.3149 26.2887 29.2702 25.3334 30.4445 25.3334C31.6188 25.3334 32.5741 26.2887 32.5741 27.463C32.5741 28.6373 31.6188 29.5926 30.4445 29.5926C29.2702 29.5926 28.3149 28.6373 28.3149 27.463ZM34.7037 34.7037H26.1852V33.4259C26.1852 31.7823 27.5226 30.4445 29.1667 30.4445H31.7223C33.3663 30.4445 34.7037 31.7823 34.7037 33.4259V34.7037Z" fill="#003CAD"></path><path d="M12.5636 23.616L11.7126 23.6493C11.7241 23.9427 11.7476 24.24 11.7825 24.5322L12.6284 24.4308C12.596 24.1612 12.5743 23.8869 12.5636 23.616Z" fill="#FF1701"></path><path d="M11.7821 21.882C11.7476 22.1725 11.7237 22.4694 11.7126 22.7645L12.5636 22.7978C12.5743 22.5252 12.596 22.2513 12.628 21.9825L11.7821 21.882Z" fill="#FF1701"></path><path d="M16.0648 14.3947C15.8319 14.5723 15.6023 14.7623 15.3821 14.9599L15.9515 15.5937C16.1543 15.4114 16.366 15.2359 16.5811 15.0724L16.0648 14.3947Z" fill="#FF1701"></path><path d="M12.7544 18.4888C12.6292 18.755 12.5133 19.0293 12.4094 19.3058L13.2068 19.6052C13.3026 19.3505 13.4095 19.0975 13.5249 18.8526L12.7544 18.4888Z" fill="#FF1701"></path><path d="M12.1309 20.1469C12.05 20.4284 11.9797 20.7185 11.9214 21.0073L12.7566 21.1755C12.8103 20.9093 12.875 20.6418 12.95 20.3816L12.1309 20.1469Z" fill="#FF1701"></path><path d="M14.7478 15.5784C14.5437 15.7931 14.3478 16.0167 14.1638 16.2437L14.8261 16.7795C14.9957 16.57 15.1771 16.363 15.3654 16.1649L14.7478 15.5784Z" fill="#FF1701"></path><path d="M17.5529 13.4376C17.2952 13.5752 17.0384 13.7264 16.7888 13.887L17.2505 14.6034C17.4805 14.4547 17.7173 14.3155 17.9542 14.189L17.5529 13.4376Z" fill="#FF1701"></path><path d="M13.6349 16.9532C13.4684 17.1965 13.3099 17.4486 13.1638 17.7037L13.9028 18.1271C14.0374 17.892 14.1839 17.659 14.3377 17.435L13.6349 16.9532Z" fill="#FF1701"></path><path d="M20.7598 33.2266L20.5916 34.0619C20.8782 34.1198 21.1729 34.1662 21.4673 34.2007L21.5661 33.3548C21.2956 33.3229 21.0239 33.2799 20.7598 33.2266Z" fill="#FF1701"></path><path d="M24.8227 33.2215C24.5582 33.2752 24.2869 33.319 24.0151 33.3523L24.1178 34.1981C24.4117 34.1624 24.7056 34.1147 24.9918 34.0567L24.8227 33.2215Z" fill="#FF1701"></path><path d="M23.2008 33.4174C22.9286 33.4281 22.6535 33.4293 22.383 33.4187L22.3494 34.2697C22.4912 34.2757 22.6343 34.2782 22.7791 34.2782C22.9316 34.2774 23.0837 34.2744 23.2349 34.2684L23.2008 33.4174Z" fill="#FF1701"></path><path d="M30.1752 14.9634L29.6062 15.5972C29.8089 15.7795 30.0057 15.9711 30.1919 16.167L30.8103 15.5814C30.6084 15.3684 30.395 15.1606 30.1752 14.9634Z" fill="#FF1701"></path><path d="M31.3933 16.2462L30.731 16.782C30.9009 16.992 31.0653 17.213 31.2195 17.4379L31.9218 16.9562C31.7549 16.713 31.5773 16.474 31.3933 16.2462Z" fill="#FF1701"></path><path d="M33.8429 22.7659L32.9919 22.7992C32.9975 22.9333 33 23.0688 33 23.2038C33 23.3422 32.9975 23.4798 32.9919 23.6174L33.8429 23.6506C33.8489 23.5024 33.8519 23.3533 33.8519 23.2029C33.8519 23.0568 33.8489 22.9107 33.8429 22.7659Z" fill="#FF1701"></path><path d="M32.3935 17.7058L31.6541 18.1296C31.7891 18.3651 31.916 18.6092 32.0318 18.8545L32.8023 18.4908C32.6771 18.225 32.5396 17.9609 32.3935 17.7058Z" fill="#FF1701"></path><path d="M33.1469 19.3074L32.3496 19.6073C32.445 19.8611 32.5311 20.1222 32.606 20.3829L33.4251 20.1482C33.3441 19.8654 33.2504 19.5826 33.1469 19.3074Z" fill="#FF1701"></path><path d="M33.6338 21.009L32.799 21.1768C32.8526 21.4434 32.8961 21.7152 32.9276 21.9843L33.7735 21.8838C33.739 21.5925 33.6921 21.2982 33.6338 21.009Z" fill="#FF1701"></path><path d="M28.7693 13.8887L28.308 14.6051C28.5354 14.7517 28.7603 14.9097 28.9771 15.0754L29.4942 14.3977C29.2595 14.2184 29.0159 14.0476 28.7693 13.8887Z" fill="#FF1701"></path><path d="M27.209 13.0522L26.8678 13.8325C27.1161 13.9411 27.3631 14.0612 27.6029 14.1898L28.0059 13.4394C27.7465 13.2996 27.4781 13.1693 27.209 13.0522Z" fill="#FF1701"></path></svg>