<svg width="29" height="29" viewBox="0 0 29 29" fill="none" xmlns="http://www.w3.org/2000/svg">
<path d="M28.0938 19.9375C28.0938 24.4421 24.4421 28.0938 19.9375 28.0938C15.4329 28.0938 11.7812 24.4421 11.7812 19.9375C11.7812 15.4329 15.4329 11.7812 19.9375 11.7812C24.4421 11.7812 28.0938 15.4329 28.0938 19.9375Z" fill="#FFBF00"/>
<path fill-rule="evenodd" clip-rule="evenodd" d="M19.9375 27.1875C21.8603 27.1875 23.7044 26.4237 25.064 25.064C26.4237 23.7044 27.1875 21.8603 27.1875 19.9375C27.1875 18.0147 26.4237 16.1706 25.064 14.811C23.7044 13.4513 21.8603 12.6875 19.9375 12.6875C18.0147 12.6875 16.1706 13.4513 14.811 14.811C13.4513 16.1706 12.6875 18.0147 12.6875 19.9375C12.6875 21.8603 13.4513 23.7044 14.811 25.064C16.1706 26.4237 18.0147 27.1875 19.9375 27.1875ZM29 19.9375C29 22.341 28.0452 24.6461 26.3457 26.3457C24.6461 28.0452 22.341 29 19.9375 29C17.534 29 15.2289 28.0452 13.5293 26.3457C11.8298 24.6461 10.875 22.341 10.875 19.9375C10.875 17.534 11.8298 15.2289 13.5293 13.5293C15.2289 11.8298 17.534 10.875 19.9375 10.875C22.341 10.875 24.6461 11.8298 26.3457 13.5293C28.0452 15.2289 29 17.534 29 19.9375Z" fill="#012D72"/>
<path d="M17.1064 21.6485C17.1916 22.7288 18.0452 23.5698 19.5768 23.6713V24.4688H20.2565V23.6658C21.8424 23.5553 22.7686 22.707 22.7686 21.4781C22.7686 20.358 22.0617 19.7816 20.793 19.4844L20.2565 19.3575V17.1825C20.938 17.2604 21.3694 17.632 21.4727 18.1468H22.6653C22.5801 17.1046 21.6866 16.2908 20.2565 16.2019V15.4062H19.5768V16.2219C18.2229 16.3542 17.3021 17.168 17.3021 18.3207C17.3021 19.3394 17.9872 19.9882 19.1273 20.2529L19.5768 20.3634V22.6689C18.8808 22.5638 18.4186 22.1796 18.3153 21.6485H17.1046H17.1064ZM19.5714 19.1944C18.9026 19.0403 18.5401 18.7231 18.5401 18.2482C18.5401 17.7154 18.9316 17.3166 19.5768 17.2006V19.1944H19.5714ZM20.3544 20.5465C21.1682 20.735 21.5416 21.0395 21.5416 21.5778C21.5416 22.1922 21.0757 22.6128 20.2565 22.6907V20.5248L20.3544 20.5465Z" fill="#012D72"/>
<path d="M1.8125 0C1.3318 0 0.870779 0.190959 0.530869 0.530869C0.190959 0.870779 0 1.3318 0 1.8125L0 16.3125C0 16.7932 0.190959 17.2542 0.530869 17.5941C0.870779 17.934 1.3318 18.125 1.8125 18.125H9.21294C9.31806 17.5015 9.47575 16.8961 9.68056 16.3125H5.4375C5.4375 15.3511 5.05558 14.4291 4.37576 13.7492C3.69594 13.0694 2.77391 12.6875 1.8125 12.6875V5.4375C2.77391 5.4375 3.69594 5.05558 4.37576 4.37576C5.05558 3.69594 5.4375 2.77391 5.4375 1.8125H23.5625C23.5625 2.77391 23.9444 3.69594 24.6242 4.37576C25.3041 5.05558 26.2261 5.4375 27.1875 5.4375V11.832C27.8762 12.4482 28.4871 13.1515 29 13.9236V1.8125C29 1.3318 28.809 0.870779 28.4691 0.530869C28.1292 0.190959 27.6682 0 27.1875 0L1.8125 0Z" fill="#012D72"/>
<path d="M18.1214 9.21294L18.125 9.0625C18.1246 8.43826 17.9631 7.82469 17.6559 7.28123C17.3488 6.73776 16.9066 6.28281 16.372 5.96044C15.8375 5.63807 15.2287 5.4592 14.6047 5.44117C13.9808 5.42313 13.3627 5.56654 12.8104 5.85749C12.2581 6.14845 11.7903 6.5771 11.4523 7.10192C11.1143 7.62674 10.9176 8.22995 10.8812 8.85312C10.8448 9.4763 10.9699 10.0983 11.2444 10.659C11.519 11.2196 11.9336 11.6998 12.4483 12.0531C14.0138 10.5619 15.9894 9.57285 18.1214 9.21294Z" fill="#FFBF00"/>
</svg>
