<svg width="23" height="28" viewBox="0 0 23 28" fill="none" xmlns="http://www.w3.org/2000/svg">
<path d="M10.9713 11.3065H12.958L12.4753 13.4212H10.454L10.9713 11.3065ZM0.333984 3.99984C0.333984 3.11578 0.685174 2.26794 1.3103 1.64281C1.93542 1.01769 2.78326 0.666504 3.66732 0.666504H19.0007C19.4384 0.666504 19.8718 0.752723 20.2763 0.920239C20.6807 1.08775 21.0481 1.33329 21.3577 1.64281C21.6672 1.95234 21.9127 2.31981 22.0802 2.72423C22.2478 3.12864 22.334 3.5621 22.334 3.99984V22.9998C22.334 23.2651 22.2286 23.5194 22.0411 23.7069C21.8536 23.8945 21.5992 23.9998 21.334 23.9998H2.33398C2.33398 24.3535 2.47446 24.6926 2.72451 24.9426C2.97456 25.1927 3.3137 25.3332 3.66732 25.3332H21.334C21.5992 25.3332 21.8536 25.4385 22.0411 25.6261C22.2286 25.8136 22.334 26.068 22.334 26.3332C22.334 26.5984 22.2286 26.8527 22.0411 27.0403C21.8536 27.2278 21.5992 27.3332 21.334 27.3332H3.66732C2.78326 27.3332 1.93542 26.982 1.3103 26.3569C0.685174 25.7317 0.333984 24.8839 0.333984 23.9998V3.99984ZM9.69932 8.09317L9.40198 9.3065H7.97398L7.83798 9.31584C7.59858 9.3487 7.37917 9.46714 7.22034 9.64926C7.06151 9.83138 6.97399 10.0649 6.97398 10.3065L6.98332 10.4425C7.01618 10.6819 7.13463 10.9013 7.31674 11.0601C7.49886 11.219 7.73233 11.3065 7.97398 11.3065H8.91132L8.39398 13.4212L7.33265 13.4225L7.19665 13.4318C6.95725 13.4647 6.73784 13.5831 6.57901 13.7653C6.42018 13.9474 6.33266 14.1809 6.33265 14.4225L6.34198 14.5585C6.37485 14.7979 6.49329 15.0173 6.67541 15.1761C6.85753 15.335 7.091 15.4225 7.33265 15.4225H7.90465L7.74065 16.0972L7.71665 16.2305C7.69136 16.4711 7.75416 16.7128 7.89342 16.9106C8.03268 17.1085 8.23894 17.2491 8.47398 17.3065L8.60732 17.3305C8.84794 17.3558 9.08957 17.293 9.28742 17.1537C9.48528 17.0145 9.62593 16.8082 9.68332 16.5732L9.96332 15.4212H12.0153L11.858 16.1118L11.8367 16.2452C11.8148 16.4863 11.8811 16.7271 12.0233 16.923C12.1655 17.119 12.374 17.2566 12.61 17.3105L12.7433 17.3318C12.9844 17.3537 13.2253 17.2874 13.4212 17.1452C13.6171 17.003 13.7548 16.7945 13.8087 16.5585L14.0673 15.4212L15.3207 15.4225L15.4567 15.4132C15.6963 15.3806 15.916 15.2623 16.0751 15.0801C16.2342 14.898 16.3219 14.6644 16.322 14.4225L16.3127 14.2865C16.2798 14.0471 16.1613 13.8277 15.9792 13.6689C15.7971 13.51 15.5636 13.4225 15.322 13.4225H14.526L15.01 11.3065H15.97L16.106 11.2972C16.3454 11.2643 16.5648 11.1459 16.7236 10.9637C16.8825 10.7816 16.97 10.5482 16.97 10.3065L16.9607 10.1718C16.9281 9.93219 16.8098 9.71247 16.6276 9.55336C16.4455 9.39426 16.2118 9.30656 15.97 9.3065H15.4687L15.642 8.5545L15.6633 8.42117C15.6849 8.18029 15.6184 7.93976 15.4762 7.74413C15.334 7.5485 15.1258 7.41103 14.89 7.35717L14.7567 7.33584C14.5158 7.31429 14.2752 7.38076 14.0796 7.52295C13.884 7.66513 13.7465 7.8734 13.6927 8.10917L13.4167 9.3065H11.4593L11.6407 8.56917L11.6647 8.43584C11.6924 8.18298 11.6227 7.92908 11.4698 7.7258C11.3168 7.52252 11.0922 7.38515 10.8416 7.34165C10.591 7.29816 10.3332 7.3518 10.1207 7.49167C9.90828 7.63153 9.7571 7.8471 9.69798 8.0945L9.69932 8.09317Z" fill="#C8EEFA"/>
</svg>
