<svg width="38" height="38" viewBox="0 0 38 38" fill="none" xmlns="http://www.w3.org/2000/svg">
<rect width="38" height="38" rx="5" fill="white"/>
<path d="M21.6671 16.1053C22.778 16.1053 23.6796 17.013 23.6796 18.1316V21.8947H23.675V23.0526H13.325V19.579H13.3273V18.1316C13.3273 17.013 14.2278 16.1053 15.3398 16.1053H21.6671ZM30 18.1316C30 17.5942 29.788 17.0787 29.4106 16.6988C29.0332 16.3187 28.5212 16.1053 27.9875 16.1053H24.1063C24.5582 16.6553 24.8296 17.3616 24.8296 18.1316V19.579H24.825V23.0526H29.1375C29.3662 23.0526 29.5856 22.9611 29.7474 22.7983C29.9091 22.6354 30 22.4145 30 22.1842V18.1316ZM12.175 21.8947H12.1773V18.1316L12.1877 17.8768C12.2373 17.2262 12.4864 16.6071 12.9007 16.1053H9.0125L8.8469 16.1122C8.34354 16.154 7.87422 16.3849 7.53208 16.759C7.18995 17.1331 7.00002 17.623 7 18.1316V22.1842C7 22.6636 7.3864 23.0526 7.8625 23.0526H12.175V21.8947ZM18.5 8C19.415 8 20.2926 8.36598 20.9395 9.01742C21.5865 9.66886 21.95 10.5524 21.95 11.4737C21.95 12.395 21.5865 13.2785 20.9395 13.9299C20.2926 14.5814 19.415 14.9474 18.5 14.9474C17.585 14.9474 16.7075 14.5814 16.0605 13.9299C15.4135 13.2785 15.05 12.395 15.05 11.4737C15.05 10.5524 15.4135 9.66886 16.0605 9.01742C16.7075 8.36598 17.585 8 18.5 8ZM25.975 9.1579C26.7375 9.1579 27.4688 9.46287 28.0079 10.0057C28.5471 10.5486 28.85 11.2849 28.85 12.0526C28.85 12.8204 28.5471 13.5566 28.0079 14.0995C27.4688 14.6424 26.7375 14.9474 25.975 14.9474C25.2125 14.9474 24.4813 14.6424 23.9421 14.0995C23.4029 13.5566 23.1 12.8204 23.1 12.0526C23.1 11.2849 23.4029 10.5486 23.9421 10.0057C24.4813 9.46287 25.2125 9.1579 25.975 9.1579ZM11.025 9.1579C11.7875 9.1579 12.5188 9.46287 13.0579 10.0057C13.5971 10.5486 13.9 11.2849 13.9 12.0526C13.9 12.8204 13.5971 13.5566 13.0579 14.0995C12.5188 14.6424 11.7875 14.9474 11.025 14.9474C10.2625 14.9474 9.53124 14.6424 8.99207 14.0995C8.4529 13.5566 8.15 12.8204 8.15 12.0526C8.15 11.2849 8.4529 10.5486 8.99207 10.0057C9.53124 9.46287 10.2625 9.1579 11.025 9.1579ZM7 25.0789C7 24.8486 7.09087 24.6277 7.25262 24.4649C7.41437 24.302 7.63375 24.2105 7.8625 24.2105H29.1375C29.3662 24.2105 29.5856 24.302 29.7474 24.4649C29.9091 24.6277 30 24.8486 30 25.0789V25.6579C30 26.8095 29.5456 27.9139 28.7369 28.7282C27.9281 29.5425 26.8313 30 25.6875 30H11.3125C10.1688 30 9.07186 29.5425 8.2631 28.7282C7.45435 27.9139 7 26.8095 7 25.6579V25.0789Z" fill="#FFBF00"/>
</svg>
