<svg width="37" height="37" viewBox="0 0 37 37" fill="none" xmlns="http://www.w3.org/2000/svg">
<path d="M29.2917 4.62484H22.8475C22.2 2.8365 20.5042 1.5415 18.5 1.5415C16.4958 1.5415 14.8 2.8365 14.1525 4.62484H7.70833C6.0125 4.62484 4.625 6.01234 4.625 7.70817V29.2915C4.625 30.9873 6.0125 32.3748 7.70833 32.3748H29.2917C30.9875 32.3748 32.375 30.9873 32.375 29.2915V7.70817C32.375 6.01234 30.9875 4.62484 29.2917 4.62484ZM18.5 4.62484C19.3479 4.62484 20.0417 5.31859 20.0417 6.1665C20.0417 7.01442 19.3479 7.70817 18.5 7.70817C17.6521 7.70817 16.9583 7.01442 16.9583 6.1665C16.9583 5.31859 17.6521 4.62484 18.5 4.62484ZM18.5 10.7915C21.0592 10.7915 23.125 12.8573 23.125 15.4165C23.125 17.9757 21.0592 20.0415 18.5 20.0415C15.9408 20.0415 13.875 17.9757 13.875 15.4165C13.875 12.8573 15.9408 10.7915 18.5 10.7915ZM27.75 29.2915H9.25V27.1332C9.25 24.0498 15.4167 22.354 18.5 22.354C21.5833 22.354 27.75 24.0498 27.75 27.1332V29.2915Z" fill="#C8EEFA"/>
</svg>
