<svg width="38" height="38" viewBox="0 0 38 38" fill="none" xmlns="http://www.w3.org/2000/svg">
<rect width="38" height="38" rx="5" fill="white"/>
<path d="M18.1868 17.177H19.9026L19.4857 19.0009H17.74L18.1868 17.177ZM9 10.875C9 10.1125 9.3033 9.38124 9.84318 8.84206C10.3831 8.3029 11.1153 8 11.8788 8H25.1212C25.4993 8 25.8736 8.07436 26.2229 8.21885C26.5722 8.36332 26.8895 8.5751 27.1568 8.84206C27.4241 9.10903 27.6362 9.42597 27.7808 9.77479C27.9256 10.1236 28 10.4974 28 10.875V27.2624C28 27.4913 27.909 27.7106 27.747 27.8723C27.5851 28.0341 27.3654 28.1249 27.1364 28.1249H10.7273C10.7273 28.43 10.8486 28.7225 11.0645 28.9381C11.2805 29.1538 11.5734 29.275 11.8788 29.275H27.1364C27.3654 29.275 27.5851 29.3658 27.747 29.5276C27.909 29.6893 28 29.9088 28 30.1375C28 30.3662 27.909 30.5856 27.747 30.7474C27.5851 30.9091 27.3654 31 27.1364 31H11.8788C11.1153 31 10.3831 30.6971 9.84318 30.1579C9.3033 29.6187 9 28.8875 9 28.1249V10.875ZM17.0882 14.4055L16.8314 15.452H15.5982L15.4807 15.46C15.274 15.4884 15.0845 15.5905 14.9473 15.7476C14.8101 15.9047 14.7345 16.1061 14.7345 16.3145L14.7426 16.4318C14.771 16.6383 14.8733 16.8275 15.0306 16.9645C15.1878 17.1015 15.3895 17.177 15.5982 17.177H16.4077L15.9609 19.0009L15.0443 19.002L14.9268 19.0101C14.7201 19.0384 14.5306 19.1406 14.3934 19.2977C14.2563 19.4548 14.1807 19.6562 14.1807 19.8645L14.1887 19.9818C14.2171 20.1883 14.3194 20.3775 14.4767 20.5145C14.634 20.6516 14.8356 20.727 15.0443 20.727H15.5383L15.3967 21.309L15.3759 21.4239C15.3541 21.6314 15.4083 21.8399 15.5286 22.0105C15.6489 22.1812 15.827 22.3025 16.03 22.352L16.1451 22.3727C16.353 22.3945 16.5616 22.3403 16.7325 22.2202C16.9034 22.1001 17.0249 21.9222 17.0744 21.7195L17.3162 20.7259H19.0884L18.9526 21.3216L18.9342 21.4366C18.9152 21.6446 18.9725 21.8522 19.0953 22.0212C19.2181 22.1903 19.3982 22.3089 19.602 22.3554L19.7171 22.3738C19.9254 22.3927 20.1334 22.3355 20.3026 22.2129C20.4718 22.0902 20.5907 21.9104 20.6372 21.7068L20.8606 20.7259L21.9431 20.727L22.0605 20.719C22.2674 20.6909 22.4572 20.5889 22.5946 20.4317C22.732 20.2747 22.8077 20.0732 22.8078 19.8645L22.7998 19.7472C22.7714 19.5408 22.669 19.3515 22.5118 19.2146C22.3545 19.0775 22.1528 19.002 21.9442 19.002H21.2567L21.6747 17.177H22.5038L22.6213 17.169C22.828 17.1406 23.0175 17.0385 23.1547 16.8813C23.2919 16.7243 23.3675 16.523 23.3675 16.3145L23.3594 16.1983C23.3313 15.9916 23.2291 15.8021 23.0717 15.6649C22.9145 15.5277 22.7126 15.452 22.5038 15.452H22.0709L22.2206 14.8034L22.2389 14.6884C22.2576 14.4806 22.2002 14.2732 22.0774 14.1044C21.9546 13.9357 21.7747 13.8171 21.5711 13.7707L21.456 13.7523C21.2479 13.7337 21.0401 13.791 20.8712 13.9137C20.7023 14.0363 20.5835 14.2159 20.5371 14.4193L20.2987 15.452H18.6082L18.7649 14.816L18.7856 14.701C18.8095 14.483 18.7493 14.264 18.6173 14.0886C18.4852 13.9133 18.2912 13.7948 18.0748 13.7573C17.8583 13.7198 17.6357 13.7661 17.4522 13.8867C17.2687 14.0073 17.1381 14.1933 17.0871 14.4066L17.0882 14.4055Z" fill="#FFBF00"/>
</svg>
