<svg width="24" height="20" viewBox="0 0 24 20" fill="none" xmlns="http://www.w3.org/2000/svg">
<path d="M21.6004 0H4.80039C3.47679 0 2.40039 1.0764 2.40039 2.4V8.4H4.80039V4.8L12.4804 10.56C12.6882 10.7156 12.9408 10.7997 13.2004 10.7997C13.46 10.7997 13.7126 10.7156 13.9204 10.56L21.6004 4.8V15.6H12.0004V18H21.6004C22.924 18 24.0004 16.9236 24.0004 15.6V2.4C24.0004 1.0764 22.924 0 21.6004 0ZM13.2004 8.1L5.59959 2.4H20.8012L13.2004 8.1Z" fill="#09233E"/>
<path d="M0 9.6001H8.4V12.0001H0V9.6001ZM2.4 13.2001H9.6V15.6001H2.4V13.2001ZM6 16.8001H10.8V19.2001H6V16.8001Z" fill="#C8EEFA"/>
</svg>
