<svg width="32" height="32" viewBox="0 0 32 32" fill="none" xmlns="http://www.w3.org/2000/svg">
<path d="M16 6.22667C10.6 11.16 8 15.28 8 18.4133C8 23.2533 11.5333 26.68 16 26.68C20.4667 26.68 24 23.2533 24 18.4133C24 15.28 21.4 11.1467 16 6.22667ZM16.3733 25.32C13.5333 25.4933 10.2133 23.8667 9.45333 19.8267C9.40913 19.565 9.47069 19.2965 9.62447 19.0802C9.77825 18.8639 10.0117 18.7175 10.2733 18.6733C10.535 18.6291 10.8035 18.6907 11.0198 18.8445C11.2361 18.9982 11.3825 19.2317 11.4267 19.4933C11.9733 22.4667 14.4667 23.4667 16.28 23.32C16.8533 23.2933 17.3333 23.7467 17.3333 24.32C17.3333 24.8533 16.9067 25.2933 16.3733 25.32Z" fill="#FFBF00"/>
<path d="M16 2.66667C8.89333 8.73334 5.33333 13.9733 5.33333 18.4C5.33333 25.04 10.4 29.3333 16 29.3333C21.6 29.3333 26.6667 25.04 26.6667 18.4C26.6667 13.9733 23.1067 8.73334 16 2.66667ZM16 26.6667C11.5333 26.6667 8 23.24 8 18.4C8 15.28 10.6 11.1467 16 6.21333C21.4 11.1467 24 15.2667 24 18.4C24 23.24 20.4667 26.6667 16 26.6667ZM10.44 18.6667C10.9333 18.6667 11.3333 19.0133 11.4267 19.4933C11.9733 22.4533 14.4667 23.4667 16.28 23.32C16.8533 23.2933 17.3333 23.7467 17.3333 24.32C17.3333 24.8533 16.9067 25.2933 16.3733 25.32C13.5333 25.4933 10.2133 23.8667 9.45333 19.8267C9.43016 19.6837 9.43832 19.5374 9.47723 19.3979C9.51615 19.2585 9.5849 19.1291 9.67873 19.0188C9.77255 18.9085 9.88922 18.8198 10.0207 18.759C10.1521 18.6983 10.2952 18.6667 10.44 18.6667Z" fill="#012D72"/>
</svg>
