<svg width="31" height="30" viewBox="0 0 31 30" fill="none" xmlns="http://www.w3.org/2000/svg">
<path d="M19.7464 11.4167C21.2357 11.4167 22.4443 12.6253 22.4443 14.1146V19.125H22.4382V20.6667H8.56315V16.0417H8.56623V14.1146C8.56623 12.6253 9.77336 11.4167 11.2642 11.4167H19.7464ZM30.9173 14.1146C30.9173 13.3991 30.6331 12.7128 30.1271 12.2069C29.6212 11.7009 28.9349 11.4167 28.2194 11.4167H23.0163C23.6222 12.149 23.986 13.0894 23.986 14.1146V16.0417H23.9798V20.6667H29.7611C30.0677 20.6667 30.3618 20.5448 30.5787 20.328C30.7955 20.1112 30.9173 19.8171 30.9173 19.5104V14.1146ZM7.02148 19.125H7.02457V14.1146L7.03844 13.7754C7.105 12.9091 7.439 12.0849 7.99428 11.4167H2.7819L2.5599 11.4259C1.88511 11.4816 1.25594 11.789 0.797283 12.2871C0.338623 12.7852 0.0840097 13.4375 0.0839844 14.1146V19.5104C0.0839844 20.1487 0.601984 20.6667 1.24023 20.6667H7.02148V19.125ZM15.5007 0.625C16.7273 0.625 17.9037 1.11228 18.771 1.97963C19.6384 2.84699 20.1257 4.02337 20.1257 5.25C20.1257 6.47663 19.6384 7.65301 18.771 8.52037C17.9037 9.38773 16.7273 9.875 15.5007 9.875C14.274 9.875 13.0976 9.38773 12.2303 8.52037C11.3629 7.65301 10.8757 6.47663 10.8757 5.25C10.8757 4.02337 11.3629 2.84699 12.2303 1.97963C13.0976 1.11228 14.274 0.625 15.5007 0.625ZM25.5215 2.16667C26.5437 2.16667 27.524 2.57273 28.2468 3.29553C28.9696 4.01832 29.3757 4.99864 29.3757 6.02083C29.3757 7.04302 28.9696 8.02334 28.2468 8.74614C27.524 9.46894 26.5437 9.875 25.5215 9.875C24.4993 9.875 23.519 9.46894 22.7962 8.74614C22.0734 8.02334 21.6673 7.04302 21.6673 6.02083C21.6673 4.99864 22.0734 4.01832 22.7962 3.29553C23.519 2.57273 24.4993 2.16667 25.5215 2.16667ZM5.47982 2.16667C6.50201 2.16667 7.48233 2.57273 8.20513 3.29553C8.92792 4.01832 9.33398 4.99864 9.33398 6.02083C9.33398 7.04302 8.92792 8.02334 8.20513 8.74614C7.48233 9.46894 6.50201 9.875 5.47982 9.875C4.45763 9.875 3.47731 9.46894 2.75451 8.74614C2.03171 8.02334 1.62565 7.04302 1.62565 6.02083C1.62565 4.99864 2.03171 4.01832 2.75451 3.29553C3.47731 2.57273 4.45763 2.16667 5.47982 2.16667ZM0.0839844 23.3646C0.0839844 23.0579 0.205803 22.7638 0.422642 22.547C0.639481 22.3302 0.933578 22.2083 1.24023 22.2083H29.7611C30.0677 22.2083 30.3618 22.3302 30.5787 22.547C30.7955 22.7638 30.9173 23.0579 30.9173 23.3646V24.1354C30.9173 25.6687 30.3082 27.1392 29.224 28.2234C28.1398 29.3076 26.6694 29.9167 25.1361 29.9167H5.86523C4.33195 29.9167 2.86147 29.3076 1.77727 28.2234C0.693079 27.1392 0.0839844 25.6687 0.0839844 24.1354V23.3646Z" fill="#C8EEFA"/>
</svg>
