<svg width="32" height="32" viewBox="0 0 32 32" fill="none" xmlns="http://www.w3.org/2000/svg">
<rect x="16.7221" y="7.55838" width="10.491" height="5.2624" transform="rotate(-25.549 16.7221 7.55838)" fill="#B6DDE9"/>
<rect x="10.1954" y="20" width="11.0817" height="7.19215" transform="rotate(2.42537 10.1954 20)" fill="#B6DDE9"/>
<path d="M9.15985 4.32376L17.2715 11.0466L13.9056 15.1077L5.79401 8.38489L9.15985 4.32376Z" fill="#B6DDE9"/>
<path d="M17.5 13.5C17.5 16 16 19.5 16 19.5L17.5 13.5ZM16.5 14.5C16.5 14.5 18 10.5 14.5 7.5C11 4.5 5.5 5.5 5.5 5.5C5.5 5.5 5.5 9.5 8.5 12.5C11.5 15.5 16.5 14.5 16.5 14.5ZM17.5 12.5C17.5 12.5 16 8.5 19.5 5.5C23 2.5 28.5 3.5 28.5 3.5C28.5 3.5 28.5 7.5 25.5 10.5C22.5 13.5 17.5 12.5 17.5 12.5ZM9.5 19.5H22.5C22.5 19.5 23.5 28.5 16 28.5C8.5 28.5 9.5 19.5 9.5 19.5Z" stroke="#012D72" stroke-width="2" stroke-linecap="round" stroke-linejoin="round"/>
</svg>
