<svg width="40" height="40" viewBox="0 0 40 40" fill="none" xmlns="http://www.w3.org/2000/svg">
<path d="M35.5153 22.2262V14.4006C35.5153 13.29 36.4241 12.3869 37.5409 12.3869C38.0749 12.387 38.587 12.5993 38.9645 12.9769C39.342 13.3545 39.5541 13.8666 39.5541 14.4006V25.1162C39.5537 26.5943 39.0255 28.0237 38.0647 29.1469L31.3828 36.2431C30.7197 36.8675 30.5572 37.42 30.5572 38.2575V39.5494H23.2841L23.2759 36.4756C23.2759 35.305 23.1803 33.7406 24.6453 32.2056L33.1241 23.6919C33.4196 23.3967 33.8184 23.2281 34.2361 23.2216C34.6537 23.2152 35.0575 23.3715 35.362 23.6574C35.6665 23.9433 35.8479 24.3365 35.8678 24.7537C35.8876 25.171 35.7444 25.5796 35.4684 25.8931L31.3791 30.2737C31.1141 30.5844 30.6653 31.17 30.4428 31.8875C30.3228 32.26 30.2884 32.6231 30.2816 33.04H31.5978C31.6028 32.7431 31.6253 32.5044 31.6959 32.2831C31.8247 31.8694 32.0809 31.4969 32.2741 31.2581L36.4253 26.7019C36.9472 26.1756 37.2334 25.4944 37.2334 24.7781C37.2334 23.7025 36.5866 22.7131 35.5166 22.2256L35.5153 22.2262ZM4.87469 22.2262V14.4006C4.87469 13.29 3.96594 12.3869 2.84906 12.3869C2.31509 12.387 1.80305 12.5993 1.42553 12.9769C1.04801 13.3545 0.835937 13.8666 0.835938 14.4006V25.1162C0.835938 26.5981 1.36906 28.0294 2.32594 29.1469L9.00844 36.2431C9.67094 36.8675 9.83406 37.42 9.83406 38.2575V39.5494H17.1072L17.1153 36.4756C17.1153 35.305 17.2109 33.7406 15.7459 32.2056L7.26719 23.6919C6.97162 23.3967 6.57284 23.2281 6.15518 23.2216C5.73752 23.2152 5.33374 23.3715 5.02923 23.6574C4.72471 23.9433 4.54335 24.3365 4.52349 24.7537C4.50363 25.171 4.64683 25.5796 4.92281 25.8931L9.01281 30.2737C9.27781 30.5844 9.72656 31.17 9.94906 31.8875C10.0697 32.26 10.1034 32.6231 10.1103 33.04H8.79406C8.78906 32.7431 8.76719 32.5044 8.69531 32.2831C8.56719 31.8694 8.31031 31.4969 8.11719 31.2581L3.96594 26.7025C3.44406 26.1762 3.15781 25.4944 3.15781 24.7787C3.15781 23.7025 3.80469 22.7131 4.87469 22.2256V22.2262ZM20.9603 3.82686C21.4183 3.82686 21.8575 3.64492 22.1814 3.32107C22.5052 2.99722 22.6872 2.55798 22.6872 2.09999C22.6872 1.64199 22.5052 1.20275 22.1814 0.878902C21.8575 0.55505 21.4183 0.373112 20.9603 0.373112C20.5023 0.373112 20.0631 0.55505 19.7392 0.878902C19.4154 1.20275 19.2334 1.64199 19.2334 2.09999C19.2334 2.55798 19.4154 2.99722 19.7392 3.32107C20.0631 3.64492 20.5023 3.82686 20.9603 3.82686ZM11.5934 3.83624C11.3643 3.83722 11.1372 3.79303 10.9251 3.7062C10.7131 3.61936 10.5202 3.49157 10.3576 3.33015C10.1949 3.16872 10.0657 2.97683 9.97725 2.76542C9.88882 2.55402 9.84292 2.32726 9.84219 2.09811C9.84301 1.86901 9.88896 1.64232 9.97743 1.43099C10.0659 1.21966 10.1951 1.02784 10.3578 0.866478C10.5204 0.70512 10.7133 0.577391 10.9253 0.490592C11.1373 0.403793 11.3643 0.359625 11.5934 0.360612C12.5609 0.360612 13.3472 1.13811 13.3472 2.09811C13.3472 3.05999 12.5609 3.83624 11.5934 3.83624ZM29.5384 10.5012C29.6975 10.5012 29.855 10.4697 30.0019 10.4088C30.1488 10.3478 30.2823 10.2586 30.3947 10.146C30.5072 10.0335 30.5963 9.89992 30.6571 9.75293C30.7179 9.60595 30.7491 9.44842 30.7491 9.28936C30.749 9.1303 30.7176 8.97281 30.6566 8.82588C30.5957 8.67896 30.5064 8.54548 30.3939 8.43306C30.2813 8.32064 30.1477 8.23149 30.0008 8.1707C29.8538 8.1099 29.6962 8.07865 29.5372 8.07874C29.2159 8.0789 28.9079 8.20667 28.6809 8.43395C28.4539 8.66122 28.3264 8.96937 28.3266 9.29061C28.3267 9.61185 28.4545 9.91988 28.6818 10.1469C28.909 10.3739 29.2172 10.5014 29.5384 10.5012V10.5012Z" fill="#45C7EF"/>
<path d="M31.2918 11.0987H28.0249C28.0099 11.0987 26.9318 11.0006 26.9318 11.0006L25.5636 6.23187C25.013 4.31187 23.403 4.37062 23.403 4.37062H18.9743C18.9743 4.37062 17.3655 4.31187 16.8149 6.23187L16.1393 8.57999L15.4655 6.23187C14.9118 4.31187 13.3061 4.37062 13.3061 4.37062H9.87925C9.87925 4.37062 8.26925 4.31187 7.71863 6.23187L6.33925 11.0375C6.208 11.4875 6.45425 11.8287 6.848 11.9425C7.2405 12.0544 7.64238 11.8562 7.743 11.4981L9.08675 6.81374L9.74113 6.81249L7.77988 14.9231H9.513V20.6844C9.513 21.1587 9.8955 21.545 10.3711 21.545C10.8455 21.545 11.2336 21.1587 11.2336 20.6844V14.9231H11.9605V20.6844C11.9605 21.1587 12.3436 21.545 12.818 21.545C13.0466 21.5453 13.2661 21.4549 13.428 21.2935C13.59 21.1321 13.6813 20.913 13.6818 20.6844V14.9231H15.3849L13.4443 6.81249L14.0961 6.81374L15.4249 11.4487C15.4468 11.5281 15.4824 11.6006 15.5286 11.6631C15.6586 11.86 15.8855 11.9687 16.138 11.9606C16.3905 11.9687 16.6161 11.8606 16.7461 11.6669C16.8003 11.596 16.8389 11.5144 16.8593 11.4275L18.1811 6.81312L18.7836 6.81187V20.5169C18.7836 21.0769 19.2418 21.5294 19.8005 21.5294C20.3599 21.5294 20.813 21.0769 20.813 20.5169V12.7194H21.5618V20.5169C21.5618 21.0769 22.0155 21.5294 22.573 21.5294C23.1336 21.5294 23.593 21.0769 23.593 20.5169V6.81187L24.248 6.81312L25.5343 11.4975C25.6043 11.7281 25.7968 11.8806 26.0274 11.9394C26.0374 11.9419 26.0424 11.9462 26.0505 11.9487C26.2555 11.995 27.2005 12.2631 27.8943 12.4612V20.9612C27.902 21.145 27.9804 21.3188 28.1132 21.4461C28.2459 21.5734 28.4228 21.6445 28.6068 21.6445C28.7907 21.6445 28.9676 21.5734 29.1003 21.4461C29.2331 21.3188 29.3116 21.145 29.3193 20.9612V16.715H29.8768V20.9612C29.8768 21.3537 30.1949 21.6719 30.5874 21.6719C30.9799 21.6719 31.3024 21.3537 31.3024 20.9612V13.0212H31.8493V15.7112C31.8493 16.0069 32.0886 16.2444 32.3793 16.2444C32.4487 16.244 32.5175 16.23 32.5815 16.2029C32.6455 16.1759 32.7035 16.1365 32.7522 16.0869C32.8009 16.0374 32.8393 15.9786 32.8652 15.9142C32.8911 15.8497 32.9039 15.7807 32.903 15.7112V12.6512C32.9043 11.7944 32.1499 11.0987 31.293 11.0987H31.2918Z" fill="#45C7EF"/>
</svg>
