<svg width="25" height="26" viewBox="0 0 25 26" fill="none" xmlns="http://www.w3.org/2000/svg">
<path d="M21.75 0.5H9.25C7.87125 0.5 6.75 1.62125 6.75 3V9.9825L0.866251 15.8663C0.691489 16.0411 0.572481 16.2638 0.524271 16.5062C0.476062 16.7487 0.500816 16.9999 0.595403 17.2283C0.689991 17.4567 0.850165 17.6519 1.05568 17.7893C1.26119 17.9266 1.50281 17.9999 1.75 18V24.25C1.75 24.5815 1.8817 24.8995 2.11612 25.1339C2.35054 25.3683 2.66848 25.5 3 25.5H23C23.3315 25.5 23.6495 25.3683 23.8839 25.1339C24.1183 24.8995 24.25 24.5815 24.25 24.25V3C24.25 1.62125 23.1288 0.5 21.75 0.5ZM11.75 23H4.25V16.0175L8 12.2675L11.75 16.0175V23ZM21.75 23H14.25V18C14.4975 18.0005 14.7395 17.9276 14.9454 17.7903C15.1513 17.6531 15.3118 17.4577 15.4065 17.2291C15.5012 17.0005 15.5258 16.7489 15.4772 16.5062C15.4287 16.2636 15.3091 16.0408 15.1338 15.8663L9.25 9.9825V3H21.75V23Z" fill="#012D72"/>
<path d="M11.75 5.5H14.25V8H11.75V5.5ZM16.75 5.5H19.25V8H16.75V5.5ZM16.75 10.5388H19.25V13H16.75V10.5388ZM16.75 15.5H19.25V18H16.75V15.5ZM6.75 16.75H9.25V19.25H6.75V16.75Z" fill="#FFBF00"/>
</svg>
