<svg width="32" height="32" viewBox="0 0 32 32" fill="none" xmlns="http://www.w3.org/2000/svg">
<path d="M16 18C17.1046 18 18 17.1046 18 16C18 14.8954 17.1046 14 16 14C14.8954 14 14 14.8954 14 16C14 17.1046 14.8954 18 16 18Z" fill="#C8EEFA"/>
<path d="M23.777 15.479C23.1591 13.9049 22.0929 12.5467 20.7105 11.5728C19.3281 10.5988 17.6902 10.052 16 10C14.3098 10.052 12.6719 10.5988 11.2895 11.5728C9.9071 12.5467 8.84088 13.9049 8.223 15.479L8 16L8.223 16.521C8.84088 18.0951 9.9071 19.4533 11.2895 20.4272C12.6719 21.4012 14.3098 21.948 16 22C17.6902 21.948 19.3281 21.4012 20.7105 20.4272C22.0929 19.4533 23.1591 18.0951 23.777 16.521L24 16L23.777 15.479ZM16 20C15.2089 20 14.4355 19.7654 13.7777 19.3259C13.1199 18.8864 12.6072 18.2616 12.3045 17.5307C12.0017 16.7998 11.9225 15.9956 12.0769 15.2196C12.2312 14.4437 12.6122 13.731 13.1716 13.1716C13.731 12.6122 14.4437 12.2312 15.2196 12.0769C15.9956 11.9225 16.7998 12.0017 17.5307 12.3045C18.2616 12.6072 18.8864 13.1199 19.3259 13.7777C19.7654 14.4355 20 15.2089 20 16C19.9987 17.0605 19.5768 18.0771 18.827 18.827C18.0771 19.5768 17.0605 19.9987 16 20Z" fill="white"/>
<path d="M28.504 8.13581L16.504 1.13581C16.351 1.04655 16.1771 0.999512 16 0.999512C15.8229 0.999512 15.649 1.04655 15.496 1.13581L3.496 8.13581C3.34502 8.22391 3.21978 8.35005 3.13275 8.50164C3.04572 8.65324 2.99995 8.82501 3 8.99981V22.9998C2.99995 23.1746 3.04572 23.3464 3.13275 23.498C3.21978 23.6496 3.34502 23.7757 3.496 23.8638L15.496 30.8638C15.649 30.9531 15.8229 31.0001 16 31.0001C16.1771 31.0001 16.351 30.9531 16.504 30.8638L28.504 23.8638C28.655 23.7757 28.7802 23.6496 28.8673 23.498C28.9543 23.3464 29.0001 23.1746 29 22.9998V8.99981C29.0001 8.82501 28.9543 8.65324 28.8673 8.50164C28.7802 8.35005 28.655 8.22391 28.504 8.13581ZM27 22.4258L16 28.8418L5 22.4258V9.57381L16 3.15781L27 9.57381V22.4258Z" fill="#C8EEFA"/>
</svg>
