<svg width="40" height="40" viewBox="0 0 40 40" fill="none" xmlns="http://www.w3.org/2000/svg">
<path d="M20 0.833332C9.42 0.833332 0.833336 9.42 0.833336 20C0.833336 30.58 9.42 39.1667 20 39.1667C30.58 39.1667 39.1667 30.58 39.1667 20C39.1667 9.42 30.58 0.833332 20 0.833332ZM22.7025 31.6725V35.3333H17.585V31.6342C14.3075 30.9442 11.5283 28.8358 11.3175 25.1175H15.0742C15.2658 27.13 16.6458 28.7017 20.1533 28.7017C23.91 28.7017 24.7533 26.8233 24.7533 25.6542C24.7533 24.0633 23.91 22.5683 19.6358 21.5525C14.8825 20.4025 11.6242 18.4475 11.6242 14.5183C11.6242 11.2217 14.2883 9.075 17.585 8.36583V4.66667H22.7025V8.40417C26.2675 9.26667 28.05 11.9692 28.165 14.9017H24.4083C24.3125 12.7742 23.1817 11.3175 20.1533 11.3175C17.2783 11.3175 15.5533 12.6208 15.5533 14.4608C15.5533 16.0708 16.7992 17.125 20.6708 18.1217C24.5425 19.1183 28.6825 20.7858 28.6825 25.6158C28.6633 29.1233 26.0375 31.04 22.7025 31.6725Z" fill="#45C7EF"/>
</svg>
