<svg width="28" height="17" viewBox="0 0 28 17" fill="none" xmlns="http://www.w3.org/2000/svg">
<g clip-path="url(#clip0_2526_306)">
<path d="M27.9807 1.43103C27.9795 0.641495 27.3364 0 26.5464 0C26.5458 0 26.5451 0 26.5446 0L1.43228 0.0344849C1.0492 0.0349759 0.68918 0.184537 0.418641 0.455566C0.148156 0.726649 -0.000490783 1.08682 1.21743e-06 1.46948L0.0194104 15.5689C0.0199034 15.9517 0.169577 16.3114 0.440828 16.5817C0.711586 16.8516 1.07115 17 1.45358 17C1.45424 17 1.45496 17 1.45551 17L26.5677 16.9655C27.3584 16.9644 28.0009 16.3208 28 15.5305L27.9807 1.43103ZM24.9709 1.43518L14.0011 9.05481L3.01001 1.46533L24.9709 1.43518ZM18.64 10.4929L25.1463 15.5345L2.83527 15.5651L9.38117 10.4929C9.69409 10.2503 9.75107 9.80026 9.50836 9.48749C9.2656 9.17482 8.8152 9.11785 8.50217 9.36035L1.45255 14.823L1.43506 2.11987L13.5945 10.5161C13.7172 10.6009 13.8597 10.6432 14.0022 10.6432C14.1453 10.6432 14.2886 10.6004 14.4116 10.515L26.5474 2.08557L26.5658 14.8209L19.5189 9.36041C19.2062 9.11796 18.7556 9.17488 18.5128 9.48755C18.2701 9.80022 18.327 10.2504 18.64 10.4929Z" fill="#323841"/>
</g>
<defs>
<clipPath id="clip0_2526_306">
<rect width="28" height="17" fill="white"/>
</clipPath>
</defs>
</svg>
