<svg width="32" height="32" viewBox="0 0 32 32" fill="none" xmlns="http://www.w3.org/2000/svg">
<path d="M15.9981 2.66406C17.6034 2.66406 19.1421 2.94806 20.5674 3.46673L18.9741 5.05873C16.5628 4.40305 14.0024 4.56249 11.6911 5.51226C9.37972 6.46203 7.44697 8.1489 6.19336 10.3106C4.93974 12.4722 4.43551 14.9875 4.75908 17.4654C5.08264 19.9432 6.21587 22.2447 7.98254 24.012C9.74921 25.7792 12.0503 26.9132 14.528 27.2376C17.0058 27.562 19.5212 27.0586 21.6833 25.8057C23.8454 24.5528 25.5329 22.6207 26.4835 20.3096C27.434 17.9986 27.5943 15.4383 26.9394 13.0267L28.5314 11.4347C29.0639 12.8979 29.3356 14.4431 29.3341 16.0001C29.3341 23.3654 23.3634 29.3361 15.9981 29.3361C8.63278 29.3361 2.66211 23.3654 2.66211 16.0001C2.66211 8.63473 8.63278 2.66406 15.9981 2.66406ZM15.9981 8.00006C16.6737 7.99975 17.3466 8.08487 18.0008 8.2534V10.3427C16.7178 9.88882 15.3186 9.88457 14.0328 10.3307C12.7471 10.7768 11.6512 11.6468 10.9251 12.7978C10.1989 13.9488 9.88564 15.3125 10.0367 16.665C10.1877 18.0175 10.794 19.2785 11.7562 20.241C12.7183 21.2035 13.9791 21.8104 15.3316 21.9619C16.6841 22.1134 18.0479 21.8006 19.1992 21.0749C20.3504 20.3492 21.2208 19.2536 21.6674 17.968C22.114 16.6824 22.1102 15.2832 21.6568 14.0001H23.7461C24.1632 15.6155 24.0648 17.321 23.4646 18.8778C22.8645 20.4346 21.7926 21.7647 20.399 22.6822C19.0054 23.5996 17.3598 24.0583 15.6926 23.9942C14.0254 23.93 12.4199 23.3462 11.1009 22.3244C9.78192 21.3027 8.8154 19.8941 8.33661 18.2958C7.85782 16.6975 7.89073 14.9895 8.43074 13.4108C8.97074 11.8322 9.99081 10.4619 11.3482 9.49166C12.7056 8.52146 14.3323 7.99993 16.0008 8.00006H15.9981ZM18.6648 16.0001C18.6646 16.5732 18.4797 17.131 18.1376 17.5909C17.7955 18.0508 17.3144 18.3881 16.7655 18.5531C16.2166 18.718 15.6291 18.7017 15.0902 18.5066C14.5513 18.3114 14.0896 17.9479 13.7736 17.4698C13.4575 16.9916 13.3039 16.4244 13.3355 15.8521C13.3671 15.2798 13.5823 14.733 13.9491 14.2926C14.3159 13.8522 14.8148 13.5417 15.3719 13.4071C15.9291 13.2725 16.5147 13.321 17.0421 13.5454L19.3354 11.2521L19.3341 7.00006C19.3343 6.73494 19.4399 6.48075 19.6274 6.2934L22.9608 2.96006C23.1006 2.82039 23.2787 2.72529 23.4726 2.68678C23.6665 2.64826 23.8674 2.66806 24.05 2.74368C24.2326 2.8193 24.3887 2.94733 24.4986 3.11162C24.6085 3.27591 24.6673 3.46908 24.6674 3.66673V7.3334H28.3341C28.5318 7.33357 28.7249 7.39231 28.8892 7.50221C29.0535 7.6121 29.1815 7.76821 29.2572 7.95083C29.3328 8.13345 29.3526 8.33438 29.3141 8.52825C29.2755 8.72211 29.1805 8.90022 29.0408 9.04006L25.7074 12.3734C25.5201 12.561 25.2659 12.6665 25.0008 12.6667H20.7474L18.4541 14.9601C18.5901 15.2801 18.6648 15.6307 18.6648 16.0001ZM24.5861 10.6667L25.9194 9.3334H23.6661C23.4009 9.3334 23.1465 9.22804 22.959 9.0405C22.7715 8.85297 22.6661 8.59861 22.6661 8.3334V6.08006L21.3341 7.4134V10.5881C21.3619 10.6131 21.3882 10.6398 21.4128 10.6681H24.5861V10.6667Z" fill="#C8EEFA"/>
</svg>
