<svg width="38" height="38" viewBox="0 0 38 38" fill="none" xmlns="http://www.w3.org/2000/svg">
<rect width="38" height="38" rx="5" fill="white"/>
<path d="M26.6667 9.40001H21.79C21.3 8.008 20.0167 7 18.5 7C16.9833 7 15.7 8.008 15.21 9.40001H10.3333C9.05 9.40001 8 10.48 8 11.8V28.6C8 29.92 9.05 31 10.3333 31H26.6667C27.95 31 29 29.92 29 28.6V11.8C29 10.48 27.95 9.40001 26.6667 9.40001ZM18.5 9.40001C19.1417 9.40001 19.6667 9.94001 19.6667 10.6C19.6667 11.26 19.1417 11.8 18.5 11.8C17.8583 11.8 17.3333 11.26 17.3333 10.6C17.3333 9.94001 17.8583 9.40001 18.5 9.40001ZM18.5 14.2C20.4367 14.2 22 15.808 22 17.8C22 19.792 20.4367 21.4 18.5 21.4C16.5633 21.4 15 19.792 15 17.8C15 15.808 16.5633 14.2 18.5 14.2ZM25.5 28.6H11.5V26.92C11.5 24.52 16.1667 23.2 18.5 23.2C20.8333 23.2 25.5 24.52 25.5 26.92V28.6Z" fill="#FFBF00"/>
</svg>
