<svg width="31" height="31" viewBox="0 0 31 31" fill="none" xmlns="http://www.w3.org/2000/svg">
<path d="M27.125 15.5C27.125 21.9203 21.9203 27.125 15.5 27.125C9.07969 27.125 3.875 21.9203 3.875 15.5C3.875 9.07969 9.07969 3.875 15.5 3.875C21.9203 3.875 27.125 9.07969 27.125 15.5Z" fill="#A1D2E9"/>
<path d="M11.002 17.0992C10.7439 16.611 10.1388 16.4245 9.65057 16.6827C9.16234 16.9408 8.97584 17.5459 9.23402 18.0341L11.002 17.0992ZM12.7731 20.0123L12.3491 20.9179L12.3491 20.9179L12.7731 20.0123ZM16.6308 20.6155L16.5125 19.6226L16.5125 19.6226L16.6308 20.6155ZM20.1422 19.1343L19.5372 18.3381C19.5234 18.3486 19.5099 18.3594 19.4966 18.3706L20.1422 19.1343ZM22.5634 18.5503C23.0031 18.2161 23.0886 17.5887 22.7545 17.149C22.4203 16.7093 21.7929 16.6238 21.3532 16.9579L22.5634 18.5503ZM20.9583 20.6667C20.9583 21.219 21.406 21.6667 21.9583 21.6667C22.5106 21.6667 22.9583 21.219 22.9583 20.6667H20.9583ZM21.9583 17.5667H22.9583C22.9583 17.0144 22.5106 16.5667 21.9583 16.5667V17.5667ZM18.7292 16.5667C18.1769 16.5667 17.7292 17.0144 17.7292 17.5667C17.7292 18.119 18.1769 18.5667 18.7292 18.5667V16.5667ZM19.9979 13.9008C20.2561 14.389 20.8612 14.5755 21.3494 14.3173C21.8376 14.0592 22.0241 13.4541 21.766 12.9659L19.9979 13.9008ZM18.2269 10.9877L17.8029 11.8934L17.8029 11.8934L18.2269 10.9877ZM14.3691 10.3845L14.4874 11.3774L14.4874 11.3774L14.3691 10.3845ZM10.8577 11.8657L11.4628 12.6619C11.4766 12.6514 11.4901 12.6406 11.5033 12.6294L10.8577 11.8657ZM8.4366 12.4497C7.99688 12.7839 7.91132 13.4113 8.24549 13.851C8.57967 14.2907 9.20702 14.3762 9.64674 14.0421L8.4366 12.4497ZM10.0417 10.3333C10.0417 9.78105 9.59395 9.33333 9.04167 9.33333C8.48938 9.33333 8.04167 9.78105 8.04167 10.3333H10.0417ZM9.04167 13.4333H8.04167C8.04167 13.9856 8.48938 14.4333 9.04167 14.4333V13.4333ZM12.2708 14.4333C12.8231 14.4333 13.2708 13.9856 13.2708 13.4333C13.2708 12.881 12.8231 12.4333 12.2708 12.4333V14.4333ZM9.23402 18.0341C9.89495 19.284 10.9994 20.2861 12.3491 20.9179L13.1971 19.1066C12.1974 18.6386 11.4382 17.9241 11.002 17.0992L9.23402 18.0341ZM12.3491 20.9179C13.6985 21.5496 15.2409 21.7882 16.7491 21.6085L16.5125 19.6226C15.3625 19.7596 14.1971 19.5747 13.1971 19.1066L12.3491 20.9179ZM16.7491 21.6085C18.2572 21.4288 19.6769 20.8371 20.7878 19.8979L19.4966 18.3706C18.7077 19.0375 17.6627 19.4855 16.5125 19.6226L16.7491 21.6085ZM20.7473 19.9304L22.5634 18.5503L21.3532 16.9579L19.5372 18.3381L20.7473 19.9304ZM22.9583 20.6667V17.5667H20.9583V20.6667H22.9583ZM21.9583 16.5667H18.7292V18.5667H21.9583V16.5667ZM21.766 12.9659C21.105 11.716 20.0006 10.7139 18.6509 10.0821L17.8029 11.8934C18.8025 12.3614 19.5617 13.0759 19.9979 13.9008L21.766 12.9659ZM18.6509 10.0821C17.3015 9.45039 15.7591 9.21179 14.2508 9.39149L14.4874 11.3774C15.6375 11.2404 16.8029 11.4253 17.8029 11.8934L18.6509 10.0821ZM14.2508 9.39149C12.7428 9.57117 11.323 10.1629 10.2121 11.1021L11.5033 12.6294C12.2922 11.9625 13.3372 11.5145 14.4874 11.3774L14.2508 9.39149ZM10.2527 11.0696L8.4366 12.4497L9.64674 14.0421L11.4628 12.6619L10.2527 11.0696ZM8.04167 10.3333V13.4333H10.0417V10.3333H8.04167ZM9.04167 14.4333H12.2708V12.4333H9.04167V14.4333ZM26.125 15.5C26.125 21.368 21.368 26.125 15.5 26.125V28.125C22.4726 28.125 28.125 22.4726 28.125 15.5H26.125ZM15.5 26.125C9.63197 26.125 4.875 21.368 4.875 15.5H2.875C2.875 22.4726 8.5274 28.125 15.5 28.125V26.125ZM4.875 15.5C4.875 9.63197 9.63197 4.875 15.5 4.875V2.875C8.5274 2.875 2.875 8.5274 2.875 15.5H4.875ZM15.5 4.875C21.368 4.875 26.125 9.63197 26.125 15.5H28.125C28.125 8.5274 22.4726 2.875 15.5 2.875V4.875Z" fill="#012D72"/>
</svg>
