<svg width="22" height="22" viewBox="0 0 22 22" fill="none" xmlns="http://www.w3.org/2000/svg">
<path d="M4.66667 0C2.09333 0 0 2.09333 0 4.66667C0 7.24 2.09333 9.33333 4.66667 9.33333C7.24 9.33333 9.33333 7.24 9.33333 4.66667C9.33333 2.09333 7.24 0 4.66667 0ZM4.66667 6.66667C3.56 6.66667 2.66667 5.77333 2.66667 4.66667C2.66667 3.56 3.56 2.66667 4.66667 2.66667C5.77333 2.66667 6.66667 3.56 6.66667 4.66667C6.66667 5.77333 5.77333 6.66667 4.66667 6.66667ZM16.6667 12C14.0933 12 12 14.0933 12 16.6667C12 19.24 14.0933 21.3333 16.6667 21.3333C19.24 21.3333 21.3333 19.24 21.3333 16.6667C21.3333 14.0933 19.24 12 16.6667 12ZM16.6667 18.6667C15.56 18.6667 14.6667 17.7733 14.6667 16.6667C14.6667 15.56 15.56 14.6667 16.6667 14.6667C17.7733 14.6667 18.6667 15.56 18.6667 16.6667C18.6667 17.7733 17.7733 18.6667 16.6667 18.6667ZM20.3867 0.946667C20.9067 1.46667 20.9067 2.30667 20.3867 2.82667L2.82667 20.3867C2.70322 20.5101 2.55668 20.608 2.39539 20.6748C2.23411 20.7416 2.06124 20.776 1.88667 20.776C1.71209 20.776 1.53923 20.7416 1.37794 20.6748C1.21666 20.608 1.07011 20.5101 0.946667 20.3867C0.823224 20.2632 0.725304 20.1167 0.658498 19.9554C0.591691 19.7941 0.557306 19.6212 0.557306 19.4467C0.557306 19.2721 0.591691 19.0992 0.658498 18.9379C0.725304 18.7767 0.823224 18.6301 0.946667 18.5067L18.5067 0.946667C18.63 0.823062 18.7765 0.724999 18.9378 0.65809C19.0991 0.591181 19.272 0.556741 19.4467 0.556741C19.6213 0.556741 19.7942 0.591181 19.9555 0.65809C20.1168 0.724999 20.2633 0.823062 20.3867 0.946667V0.946667Z" fill="#012D72"/>
<circle cx="16.6667" cy="16.6667" r="2" fill="#B6DDE9"/>
<circle cx="4.66666" cy="4.66666" r="2" fill="#B6DDE9"/>
</svg>
