<svg width="31" height="31" viewBox="0 0 31 31" fill="none" xmlns="http://www.w3.org/2000/svg">
<path d="M15.5 14.2083C18.3535 14.2083 20.6667 11.8951 20.6667 9.04167C20.6667 6.1882 18.3535 3.875 15.5 3.875C12.6465 3.875 10.3333 6.1882 10.3333 9.04167C10.3333 11.8951 12.6465 14.2083 15.5 14.2083Z" fill="#FFBF00"/>
<path d="M30.4154 12.3321C30.806 11.9416 30.806 11.3084 30.4154 10.9179C30.0249 10.5274 29.3917 10.5274 29.0012 10.9179L30.4154 12.3321ZM25.5751 15.7582L24.868 16.4654C25.2585 16.8559 25.8917 16.8559 26.2822 16.4653L25.5751 15.7582ZM23.9571 12.7262C23.5666 12.3356 22.9334 12.3357 22.5429 12.7262C22.1524 13.1167 22.1524 13.7499 22.5429 14.1404L23.9571 12.7262ZM25.8333 27.125V28.125C26.3856 28.125 26.8333 27.6773 26.8333 27.125H25.8333ZM5.16667 27.125H4.16667C4.16667 27.6773 4.61438 28.125 5.16667 28.125V27.125ZM29.0012 10.9179L24.868 15.0511L26.2822 16.4653L30.4154 12.3321L29.0012 10.9179ZM22.5429 14.1404L24.868 16.4654L26.2822 15.0511L23.9571 12.7262L22.5429 14.1404ZM10.3333 20.375H20.6667V18.375H10.3333V20.375ZM24.8333 24.5417V27.125H26.8333V24.5417H24.8333ZM6.16667 27.125V24.5417H4.16667V27.125H6.16667ZM20.6667 20.375C22.9679 20.375 24.8333 22.2405 24.8333 24.5417H26.8333C26.8333 21.1359 24.0724 18.375 20.6667 18.375V20.375ZM10.3333 18.375C6.92758 18.375 4.16667 21.1359 4.16667 24.5417H6.16667C6.16667 22.2405 8.03215 20.375 10.3333 20.375V18.375ZM19.6667 9.04167C19.6667 11.3429 17.8012 13.2083 15.5 13.2083V15.2083C18.9058 15.2083 21.6667 12.4474 21.6667 9.04167H19.6667ZM15.5 13.2083C13.1988 13.2083 11.3333 11.3429 11.3333 9.04167H9.33333C9.33333 12.4474 12.0942 15.2083 15.5 15.2083V13.2083ZM11.3333 9.04167C11.3333 6.74048 13.1988 4.875 15.5 4.875V2.875C12.0942 2.875 9.33333 5.63591 9.33333 9.04167H11.3333ZM15.5 4.875C17.8012 4.875 19.6667 6.74048 19.6667 9.04167H21.6667C21.6667 5.63591 18.9058 2.875 15.5 2.875V4.875ZM5.16667 28.125H25.8333V26.125H5.16667V28.125Z" fill="#012D72"/>
</svg>
