<svg width="26" height="28" viewBox="0 0 26 28" fill="none" xmlns="http://www.w3.org/2000/svg">
<rect x="12.7221" y="5.55838" width="10.491" height="5.2624" transform="rotate(-25.549 12.7221 5.55838)" fill="#FFBF00"/>
<rect x="6.19543" y="18" width="11.0817" height="7.19215" transform="rotate(2.42537 6.19543 18)" fill="#FFBF00"/>
<path d="M5.15985 2.32376L13.2715 9.04661L9.90563 13.1077L1.79401 6.38489L5.15985 2.32376Z" fill="#FFBF00"/>
<path d="M13.5 11.5C13.5 14 12 17.5 12 17.5L13.5 11.5ZM12.5 12.5C12.5 12.5 14 8.5 10.5 5.5C7 2.5 1.5 3.5 1.5 3.5C1.5 3.5 1.5 7.5 4.5 10.5C7.5 13.5 12.5 12.5 12.5 12.5ZM13.5 10.5C13.5 10.5 12 6.5 15.5 3.5C19 0.499996 24.5 1.5 24.5 1.5C24.5 1.5 24.5 5.5 21.5 8.5C18.5 11.5 13.5 10.5 13.5 10.5ZM5.5 17.5H18.5C18.5 17.5 19.5 26.5 12 26.5C4.5 26.5 5.5 17.5 5.5 17.5Z" stroke="#012D72" stroke-width="2" stroke-linecap="round" stroke-linejoin="round"/>
</svg>
