<svg width="30" height="32" viewBox="0 0 30 32" fill="none" xmlns="http://www.w3.org/2000/svg">
<path d="M25.5877 0H3.15898C1.42154 0 0 1.32462 0 2.9281V21.6819C0 22.658 0.552822 23.5643 1.42154 24.122L14.4524 32L27.4831 24.122C28.3519 23.634 28.9047 22.7277 28.9047 21.6819V2.9281C28.8257 1.32462 27.4042 0 25.5877 0ZM14.3734 6.34423C17.1374 6.34423 19.4277 8.36601 19.4277 10.8061C19.4277 13.2462 17.1374 15.268 14.3734 15.268C11.6093 15.268 9.319 13.2462 9.319 10.8061C9.319 8.36601 11.6093 6.34423 14.3734 6.34423ZM21.4021 21.7516C19.7437 23.3551 17.4534 24.7495 14.3734 25.5861C11.2934 24.7495 9.0031 23.4248 7.34464 21.7516V18.963L10.4246 17.22L14.3734 19.7996L18.3221 17.22L21.4021 18.963V21.7516Z" fill="#FFB703"/>
</svg>
