<svg width="594" height="276" viewBox="0 0 594 276" fill="none" xmlns="http://www.w3.org/2000/svg">
<path fill-rule="evenodd" clip-rule="evenodd" d="M250.579 67.0569C250.579 67.0569 280.955 16.7684 311.524 18.0001C322.284 18.4277 333.059 25.2454 342.557 42.8721C342.557 42.8721 345.203 19.214 333.222 7.17546C317.663 -8.46556 294.494 4.55803 281.995 17.2992C267.684 31.8891 256.16 52.8009 250.579 67.0569Z" fill="#9C9EA1"/>
<path fill-rule="evenodd" clip-rule="evenodd" d="M251.122 21.7471C251.122 21.7471 225.75 52.8892 228.311 78.391C230.575 100.943 252.131 107.208 271.942 106.092C309.063 103.998 361.597 70.7554 386.506 43.173C359.48 80.5139 294.645 129.228 245.245 129.713C222.245 129.937 204.254 117.514 207.161 93.256C210.259 67.4882 236.3 38.4766 251.122 21.7471Z" fill="#012D72"/>
<path d="M177.803 247.674L177.789 267.925L175.735 267.924L175.746 251.723L167.781 265.344L166.768 265.343L158.822 251.798L158.811 267.912L156.757 267.911L156.771 247.66L158.536 247.661L167.32 262.682L176.038 247.673L177.803 247.674Z" fill="#9C9EA1"/>
<path d="M189.441 247.682L191.582 247.684L191.567 267.935L189.427 267.933L189.441 247.682Z" fill="#9C9EA1"/>
<path d="M211.481 268.123C209.475 268.121 207.663 267.676 206.043 266.788C204.443 265.9 203.181 264.674 202.256 263.111C201.351 261.529 200.899 259.764 200.9 257.816C200.901 255.868 201.356 254.113 202.263 252.552C203.19 250.971 204.464 249.737 206.085 248.851C207.705 247.965 209.519 247.523 211.525 247.524C213.029 247.525 214.417 247.777 215.69 248.28C216.962 248.782 218.042 249.516 218.928 250.481L217.568 251.839C215.987 250.237 213.992 249.436 211.581 249.434C209.98 249.433 208.524 249.798 207.212 250.53C205.9 251.262 204.867 252.264 204.114 253.537C203.38 254.809 203.013 256.236 203.012 257.817C203.011 259.399 203.376 260.826 204.108 262.1C204.859 263.373 205.891 264.377 207.201 265.111C208.512 265.845 209.968 266.212 211.569 266.213C213.999 266.215 215.996 265.406 217.559 263.787L218.918 265.148C218.03 266.112 216.94 266.854 215.647 267.373C214.374 267.874 212.985 268.124 211.481 268.123Z" fill="#9C9EA1"/>
<path d="M242.044 267.971L237.42 261.458C236.899 261.516 236.359 261.544 235.8 261.544L230.361 261.54L230.357 267.962L228.216 267.961L228.23 247.71L235.81 247.715C238.394 247.717 240.419 248.336 241.884 249.571C243.349 250.806 244.08 252.504 244.079 254.664C244.078 256.246 243.672 257.586 242.861 258.685C242.069 259.764 240.931 260.544 239.445 261.026L244.388 267.972L242.044 267.971ZM235.743 259.721C237.749 259.723 239.283 259.28 240.344 258.394C241.406 257.507 241.937 256.264 241.938 254.663C241.939 253.023 241.41 251.769 240.349 250.901C239.289 250.013 237.756 249.568 235.751 249.567L230.37 249.563L230.362 259.717L235.743 259.721Z" fill="#9C9EA1"/>
<path d="M262.359 268.159C260.353 268.157 258.531 267.712 256.892 266.824C255.273 265.916 254.001 264.681 253.076 263.118C252.171 261.555 251.719 259.8 251.72 257.852C251.722 255.904 252.176 254.149 253.084 252.588C254.011 251.026 255.284 249.802 256.905 248.916C258.545 248.011 260.368 247.559 262.374 247.561C264.38 247.562 266.183 248.007 267.783 248.895C269.402 249.784 270.674 251.019 271.599 252.601C272.524 254.164 272.985 255.919 272.984 257.867C272.982 259.815 272.518 261.58 271.591 263.16C270.665 264.722 269.391 265.946 267.77 266.832C266.169 267.718 264.365 268.16 262.359 268.159ZM262.361 266.249C263.961 266.25 265.408 265.895 266.701 265.182C267.993 264.45 269.007 263.448 269.741 262.175C270.474 260.884 270.842 259.447 270.843 257.866C270.844 256.284 270.479 254.857 269.747 253.583C269.015 252.291 268.003 251.287 266.711 250.572C265.419 249.839 263.973 249.471 262.372 249.47C260.772 249.469 259.315 249.834 258.003 250.566C256.71 251.279 255.688 252.281 254.934 253.573C254.201 254.845 253.833 256.272 253.832 257.854C253.831 259.435 254.196 260.872 254.928 262.165C255.68 263.438 256.701 264.442 257.993 265.176C259.304 265.89 260.76 266.248 262.361 266.249Z" fill="#9C9EA1"/>
<path d="M290.84 268.179C288.835 268.177 287.022 267.732 285.402 266.844C283.802 265.956 282.54 264.73 281.615 263.167C280.71 261.585 280.258 259.82 280.259 257.872C280.261 255.924 280.715 254.169 281.623 252.608C282.55 251.027 283.823 249.794 285.444 248.908C287.065 248.021 288.878 247.579 290.884 247.581C292.388 247.582 293.777 247.833 295.049 248.336C296.322 248.838 297.401 249.572 298.288 250.537L296.927 251.895C295.347 250.294 293.351 249.492 290.94 249.49C289.34 249.489 287.883 249.854 286.571 250.586C285.259 251.318 284.227 252.32 283.474 253.593C282.74 254.865 282.372 256.292 282.371 257.874C282.37 259.455 282.735 260.883 283.467 262.156C284.219 263.43 285.25 264.433 286.561 265.167C287.872 265.901 289.328 266.268 290.929 266.269C293.359 266.271 295.355 265.462 296.919 263.844L298.277 265.204C297.39 266.168 296.299 266.91 295.007 267.429C293.734 267.93 292.345 268.18 290.84 268.179Z" fill="#9C9EA1"/>
<path d="M321.404 268.027L316.779 261.514C316.259 261.572 315.719 261.6 315.159 261.6L309.72 261.596L309.716 268.018L307.575 268.017L307.589 247.766L315.169 247.771C317.753 247.773 319.778 248.392 321.243 249.627C322.708 250.863 323.44 252.56 323.438 254.72C323.437 256.302 323.031 257.642 322.22 258.741C321.429 259.82 320.29 260.601 318.805 261.082L323.747 268.028L321.404 268.027ZM315.103 259.777C317.109 259.779 318.642 259.336 319.704 258.45C320.765 257.563 321.296 256.32 321.297 254.719C321.298 253.08 320.769 251.826 319.709 250.957C318.649 250.069 317.116 249.624 315.11 249.623L309.729 249.619L309.722 259.773L315.103 259.777Z" fill="#9C9EA1"/>
<path d="M347.198 266.194L347.196 268.045L332.876 268.035L332.89 247.784L346.777 247.794L346.775 249.645L335.03 249.637L335.025 256.841L345.497 256.848L345.496 258.671L335.023 258.663L335.018 266.185L347.198 266.194ZM341.949 242.554L344.697 242.556L340.008 246.14L337.983 246.139L341.949 242.554Z" fill="#9C9EA1"/>
<path d="M356.041 247.801L364.286 247.806C366.426 247.808 368.316 248.243 369.955 249.112C371.594 249.962 372.866 251.159 373.771 252.702C374.677 254.227 375.129 255.972 375.127 257.94C375.126 259.907 374.671 261.662 373.764 263.204C372.856 264.727 371.582 265.922 369.942 266.789C368.302 267.636 366.412 268.059 364.271 268.057L356.026 268.052L356.041 247.801ZM364.157 266.206C365.931 266.207 367.484 265.861 368.815 265.168C370.147 264.455 371.179 263.482 371.913 262.248C372.647 260.995 373.014 259.558 373.015 257.938C373.016 256.318 372.651 254.891 371.919 253.656C371.187 252.402 370.156 251.427 368.826 250.732C367.495 250.017 365.943 249.659 364.169 249.658L358.18 249.654L358.168 266.202L364.157 266.206Z" fill="#9C9EA1"/>
<path d="M382.9 247.82L385.041 247.821L385.026 268.072L382.886 268.071L382.9 247.82Z" fill="#9C9EA1"/>
<path d="M400.093 249.683L392.976 249.678L392.977 247.827L409.352 247.838L409.35 249.69L402.234 249.685L402.221 268.084L400.08 268.083L400.093 249.683Z" fill="#9C9EA1"/>
<path d="M426.148 268.275C424.142 268.274 422.32 267.829 420.681 266.94C419.062 266.033 417.79 264.797 416.865 263.235C415.96 261.672 415.508 259.916 415.509 257.968C415.511 256.02 415.965 254.266 416.873 252.704C417.8 251.142 419.073 249.919 420.694 249.033C422.334 248.127 424.157 247.675 426.163 247.677C428.169 247.678 429.972 248.123 431.572 249.011C433.191 249.9 434.463 251.135 435.388 252.717C436.313 254.28 436.774 256.035 436.773 257.983C436.771 259.931 436.307 261.696 435.38 263.277C434.454 264.838 433.18 266.062 431.559 266.948C429.958 267.834 428.154 268.276 426.148 268.275ZM426.15 266.366C427.75 266.367 429.197 266.011 430.49 265.298C431.783 264.566 432.796 263.564 433.53 262.292C434.263 261 434.631 259.563 434.632 257.982C434.633 256.4 434.268 254.973 433.536 253.699C432.804 252.407 431.792 251.403 430.5 250.689C429.208 249.955 427.762 249.587 426.161 249.586C424.561 249.585 423.104 249.95 421.792 250.682C420.5 251.395 419.477 252.397 418.724 253.689C417.99 254.961 417.622 256.388 417.621 257.97C417.62 259.551 417.985 260.988 418.717 262.281C419.469 263.555 420.49 264.558 421.782 265.292C423.093 266.007 424.549 266.364 426.15 266.366Z" fill="#9C9EA1"/>
<path d="M86.6217 229.812C79.0073 233.491 69.067 235.327 56.8007 235.318C40.8013 235.307 28.2233 230.595 19.0667 221.183C9.91004 211.77 5.33727 199.234 5.34836 183.574C5.36017 166.896 10.509 153.373 20.7947 143.005C31.129 132.637 44.514 127.459 60.9497 127.47C71.1312 127.477 79.7117 128.768 86.6915 131.343L86.6755 153.96C79.6969 149.786 71.7471 147.695 62.8262 147.689C53.0327 147.682 45.1277 150.755 39.1115 156.908C33.0952 163.061 30.0834 171.398 30.0759 181.919C30.0688 192.004 32.8993 200.054 38.5676 206.07C44.2359 212.037 51.8698 215.024 61.4695 215.031C70.6328 215.037 79.0219 212.813 86.6369 208.358L86.6217 229.812ZM151.164 179.823C148.401 178.318 145.178 177.564 141.493 177.562C136.499 177.558 132.595 179.398 129.781 183.081C126.966 186.715 125.556 191.683 125.552 197.986L125.527 233.548L102.546 233.532L102.599 159.062L125.58 159.078L125.57 172.896L125.861 172.896C129.504 162.814 136.053 157.777 145.507 157.783C147.931 157.785 149.822 158.077 151.179 158.66L151.164 179.823ZM228.817 202.932L180.237 202.897C181.005 213.71 187.814 219.12 200.662 219.129C208.855 219.135 216.056 217.201 222.265 213.327L222.253 229.908C215.366 233.588 206.419 235.424 195.414 235.416C183.39 235.407 174.059 232.08 167.422 225.433C160.784 218.738 157.47 209.426 157.478 197.5C157.487 185.136 161.082 175.345 168.262 168.126C175.443 160.908 184.27 157.302 194.742 157.309C205.602 157.317 213.987 160.547 219.898 166.999C225.857 173.452 228.832 182.205 228.824 193.259L228.817 202.932ZM207.519 188.808C207.527 178.142 203.215 172.806 194.585 172.8C190.901 172.797 187.7 174.322 184.983 177.374C182.314 180.427 180.687 184.232 180.102 188.789L207.519 188.808Z" fill="#012D72"/>
<path d="M298.841 230.98C293.651 233.983 286.159 235.48 276.366 235.473C264.924 235.465 255.666 231.992 248.592 225.054C241.519 218.116 237.986 209.168 237.993 198.211C238.002 185.557 241.791 175.597 249.36 168.33C256.977 161.014 267.136 157.361 279.839 157.37C288.614 157.376 294.965 158.544 298.89 160.874L298.877 180.364C294.079 176.773 288.723 174.975 282.808 174.971C276.215 174.966 270.977 176.902 267.096 180.778C263.263 184.605 261.344 189.913 261.339 196.701C261.334 203.294 263.173 208.483 266.855 212.268C270.537 216.003 275.602 217.874 282.051 217.878C287.772 217.882 293.373 216.092 298.854 212.508L298.841 230.98ZM380.894 203.04L332.314 203.005C333.082 213.817 339.89 219.228 352.738 219.237C360.932 219.243 368.133 217.309 374.341 213.435L374.33 230.016C367.442 233.696 358.496 235.532 347.49 235.524C335.467 235.515 326.136 232.188 319.498 225.541C312.861 218.845 309.546 209.534 309.555 197.607C309.564 185.244 313.158 175.453 320.339 168.234C327.52 161.015 336.346 157.41 346.818 157.417C357.679 157.425 366.064 160.655 371.974 167.107C377.933 173.56 380.909 182.313 380.901 193.367L380.894 203.04ZM359.596 188.916C359.603 178.25 355.292 172.913 346.662 172.907C342.977 172.905 339.776 174.43 337.059 177.482C334.39 180.535 332.763 184.34 332.178 188.897L359.596 188.916ZM443.163 180.03C440.4 178.525 437.176 177.771 433.492 177.769C428.498 177.765 424.594 179.605 421.779 183.287C418.965 186.922 417.555 191.89 417.551 198.193L417.525 233.755L394.544 233.739L394.597 159.269L417.578 159.285L417.568 173.103L417.859 173.103C421.503 163.021 428.051 157.984 437.506 157.99C439.93 157.992 441.82 158.284 443.177 158.867L443.163 180.03ZM498.905 232.94C495.51 234.732 490.394 235.625 483.558 235.62C467.365 235.609 459.274 227.191 459.286 210.368L459.31 176.26L447.238 176.251L447.25 159.306L459.322 159.315L459.333 143.243L482.246 136.714L482.23 159.331L498.957 159.343L498.945 176.288L482.218 176.276L482.197 206.384C482.191 214.141 485.267 218.022 491.425 218.026C493.849 218.028 496.346 217.327 498.917 215.923L498.905 232.94ZM547.41 235.665C534.999 235.657 525.232 232.183 518.11 225.245C511.036 218.259 507.503 208.802 507.512 196.875C507.521 184.56 511.212 174.939 518.586 168.011C525.961 161.035 535.927 157.551 548.484 157.56C560.847 157.569 570.541 161.066 577.566 168.053C584.591 174.991 588.1 184.181 588.092 195.623C588.083 207.986 584.44 217.753 577.162 224.923C569.933 232.094 560.016 235.674 547.41 235.665ZM548.035 175.159C542.605 175.155 538.385 177.019 535.377 180.75C532.368 184.481 530.861 189.765 530.857 196.601C530.847 210.903 536.611 218.058 548.15 218.067C559.156 218.074 564.664 210.733 564.674 196.043C564.684 182.128 559.137 175.167 548.035 175.159Z" fill="#9C9EA1"/>
</svg>
