<svg width="114" height="116" viewBox="0 0 114 116" fill="none" xmlns="http://www.w3.org/2000/svg">
<g opacity="0.3">
<path d="M113.5 57.569C113.5 89.0921 88.1994 114.638 57 114.638C25.8006 114.638 0.5 89.0921 0.5 57.569C0.5 26.046 25.8006 0.5 57 0.5C88.1994 0.5 113.5 26.046 113.5 57.569Z" stroke="white"/>
<path d="M113.5 57.569C113.5 89.0921 88.1994 114.638 57 114.638C25.8006 114.638 0.5 89.0921 0.5 57.569C0.5 26.046 25.8006 0.5 57 0.5C88.1994 0.5 113.5 26.046 113.5 57.569Z" stroke="white"/>
<path d="M113.5 57.569C113.5 89.0921 88.1994 114.638 57 114.638C25.8006 114.638 0.5 89.0921 0.5 57.569C0.5 26.046 25.8006 0.5 57 0.5C88.1994 0.5 113.5 26.046 113.5 57.569Z" stroke="white"/>
<path d="M113.5 57.569C113.5 89.0921 88.1994 114.638 57 114.638C25.8006 114.638 0.5 89.0921 0.5 57.569C0.5 26.046 25.8006 0.5 57 0.5C88.1994 0.5 113.5 26.046 113.5 57.569Z" stroke="white"/>
</g>
<path d="M98.6309 57.9932C98.6309 81.1947 80.0451 99.9932 57.1309 99.9932C34.2166 99.9932 15.6309 81.1947 15.6309 57.9932C15.6309 34.7916 34.2166 15.9932 57.1309 15.9932C80.0451 15.9932 98.6309 34.7916 98.6309 57.9932Z" fill="#49C5FD"/>
<path d="M98.6309 57.9932C98.6309 81.1947 80.0451 99.9932 57.1309 99.9932C34.2166 99.9932 15.6309 81.1947 15.6309 57.9932C15.6309 34.7916 34.2166 15.9932 57.1309 15.9932C80.0451 15.9932 98.6309 34.7916 98.6309 57.9932Z" stroke="white"/>
<path d="M98.6309 57.9932C98.6309 81.1947 80.0451 99.9932 57.1309 99.9932C34.2166 99.9932 15.6309 81.1947 15.6309 57.9932C15.6309 34.7916 34.2166 15.9932 57.1309 15.9932C80.0451 15.9932 98.6309 34.7916 98.6309 57.9932Z" stroke="white"/>
<path d="M98.6309 57.9932C98.6309 81.1947 80.0451 99.9932 57.1309 99.9932C34.2166 99.9932 15.6309 81.1947 15.6309 57.9932C15.6309 34.7916 34.2166 15.9932 57.1309 15.9932C80.0451 15.9932 98.6309 34.7916 98.6309 57.9932Z" stroke="white"/>
<path d="M98.6309 57.9932C98.6309 81.1947 80.0451 99.9932 57.1309 99.9932C34.2166 99.9932 15.6309 81.1947 15.6309 57.9932C15.6309 34.7916 34.2166 15.9932 57.1309 15.9932C80.0451 15.9932 98.6309 34.7916 98.6309 57.9932Z" stroke="white"/>
<path d="M78.8915 52.1736C82.2 54.1028 82.2 58.883 78.8915 60.8122L49.8689 77.7357C46.5356 79.6794 42.3502 77.275 42.3502 73.4164L42.3502 39.5694C42.3502 35.7108 46.5356 33.3064 49.8689 35.2501L78.8915 52.1736Z" fill="white"/>
</svg>
